<svg id="图层_1" data-name="图层 1" xmlns="http://www.w3.org/2000/svg" xmlns:xlink="http://www.w3.org/1999/xlink" viewBox="0 0 379.27 62.06"><defs><style>.cls-1{fill:#1c2633;}.cls-2{fill:#8dbdff;}.cls-3{fill:url(#未命名的渐变_48);}.cls-4{fill:url(#未命名的渐变_48-2);}.cls-5{fill:url(#未命名的渐变_194);}.cls-6{fill:url(#未命名的渐变_194-2);}.cls-7{fill:url(#未命名的渐变_194-3);}.cls-8{fill:url(#未命名的渐变_48-3);}</style><linearGradient id="未命名的渐变_48" x1="8.61" y1="39.18" x2="44.36" y2="39.18" gradientUnits="userSpaceOnUse"><stop offset="0" stop-color="#63a396"/><stop offset="1" stop-color="#448185"/></linearGradient><linearGradient id="未命名的渐变_48-2" x1="30.08" y1="31.49" x2="59.58" y2="31.49" xlink:href="#未命名的渐变_48"/><linearGradient id="未命名的渐变_194" x1="42.69" y1="39.18" x2="78.44" y2="39.18" gradientUnits="userSpaceOnUse"><stop offset="0" stop-color="#004d8e"/><stop offset="1" stop-color="#178acc"/></linearGradient><linearGradient id="未命名的渐变_194-2" x1="27.47" y1="46.88" x2="56.97" y2="46.88" xlink:href="#未命名的渐变_194"/><linearGradient id="未命名的渐变_194-3" x1="45.62" y1="54.73" x2="51.81" y2="54.73" xlink:href="#未命名的渐变_194"/><linearGradient id="未命名的渐变_48-3" x1="35.53" y1="22.71" x2="41.72" y2="22.71" xlink:href="#未命名的渐变_48"/></defs><path class="cls-1" d="M387.88,49.57v2.75H375V21.59h12.93v2.76h-9.94v11.1h9.28V38.2h-9.28V49.57Zm-24,3c-2.69,0-4.65-.43-5.85-1.29a5.09,5.09,0,0,1-1.92-4.23c-.07-1.09-.09-2.08-.07-3s.07-1.88.14-3h2.9q-.12,1.66-.12,3.3c0,1.09.05,2.14.12,3.16a2.21,2.21,0,0,0,1.19,1.84,7.85,7.85,0,0,0,3.55.59,7.43,7.43,0,0,0,3.45-.59,2.26,2.26,0,0,0,1.15-1.84c.07-1,.1-1.91.1-2.66s0-1.69-.1-2.81a4.47,4.47,0,0,0-.7-2.24A3.77,3.77,0,0,0,365,38.7L362,38.14A9.86,9.86,0,0,1,358.3,37a4,4,0,0,1-1.65-2,10.42,10.42,0,0,1-.52-3c-.05-.79-.06-1.63-.05-2.53s.05-1.76.09-2.61A4.9,4.9,0,0,1,358,22.57c1.17-.84,3.13-1.25,5.89-1.26,2.54,0,4.38.43,5.54,1.28a5.07,5.07,0,0,1,1.84,4.19c0,.68.06,1.51,0,2.51s0,2-.08,3.09h-2.93q.15-1.53.15-3.06c0-1,0-2-.11-3a2.09,2.09,0,0,0-1.13-1.81,10.43,10.43,0,0,0-6.86,0,2.13,2.13,0,0,0-1.15,1.81c-.07.91-.11,1.85-.1,2.79s0,1.89.1,2.82a4.66,4.66,0,0,0,.67,2.41c.4.54,1.33.91,2.81,1.08l3,.47A9.21,9.21,0,0,1,369.32,37,4.11,4.11,0,0,1,371,39.12a9.88,9.88,0,0,1,.5,3c.07,1.06.11,1.93.09,2.59s-.06,1.45-.13,2.38a5.22,5.22,0,0,1-1.9,4.23c-1.17.86-3,1.28-5.63,1.29m-19-28.26-1.49,10-1,6.68H349l-.92-6.71-1.51-10Zm-2.73,19.46-1.34,8.51h-3l4.86-30.73h6.15l4.91,30.73h-3l-1.34-8.51ZM327.12,38.2h-3.94V49.57h4.3a7.51,7.51,0,0,0,3.59-.66,2.3,2.3,0,0,0,1.23-2,35.67,35.67,0,0,0,0-5.47,2.82,2.82,0,0,0-1.28-2.5,8,8,0,0,0-3.9-.73m.29-13.85h-4.23v11.1h4.19A6.67,6.67,0,0,0,331,34.7a2.84,2.84,0,0,0,1.25-2.32,27.19,27.19,0,0,0,0-5.56A2.2,2.2,0,0,0,331,25a8.07,8.07,0,0,0-3.6-.6m.07,28h-7.29V21.59h7.22c2.72,0,4.68.42,5.9,1.25A4.87,4.87,0,0,1,335.25,27q.12,3.21,0,5.49c-.1,2.13-1.34,3.47-3.7,4v.74a5.14,5.14,0,0,1,2.79,1.41,4,4,0,0,1,1,2.68c.07,1,.1,1.94.1,2.8s0,1.81-.1,2.83a4.84,4.84,0,0,1-2,4.13c-1.22.83-3.18,1.25-5.86,1.25m-15.34-28v28h-3v-28h-5.88V21.59H318v2.76ZM288.55,40.79l.17,11.53H285.8V21.59h5.48l2.39,9.75,4,18.23h1.21l-.5-16.75-.14-11.23h2.94V52.32h-5.64l-2.71-10.86-3.42-17.13H288.1ZM274.09,50a9,9,0,0,0,3.75-.55A2,2,0,0,0,279,47.68q.3-5.38.24-10.81T279,26.24a2,2,0,0,0-1.16-1.81,13.4,13.4,0,0,0-7.48,0,2,2,0,0,0-1.15,1.81q-.31,5.22-.28,10.63c0,3.61.12,7.22.28,10.81a2,2,0,0,0,1.15,1.79,9.23,9.23,0,0,0,3.75.55m0,2.59q-4.21,0-6-1.28a5,5,0,0,1-1.9-4.17Q266,41.93,266,37c0-3.32.07-6.73.21-10.21a5,5,0,0,1,1.9-4.17c1.19-.84,3.19-1.25,6-1.26s4.81.42,6,1.26A4.72,4.72,0,0,1,282,26.74c.08,3.49.13,6.9.13,10.22s-.05,6.71-.13,10.2a4.77,4.77,0,0,1-1.85,4.17c-1.23.85-3.23,1.28-6,1.28m-12.76-31V52.32h-3V21.59ZM245.64,38.2h-3.93V49.57H246a7.51,7.51,0,0,0,3.59-.66,2.3,2.3,0,0,0,1.23-2,33.3,33.3,0,0,0,0-5.47,2.82,2.82,0,0,0-1.28-2.5,8,8,0,0,0-3.91-.73M246,24.35h-4.24v11.1h4.19a6.67,6.67,0,0,0,3.64-.75,2.84,2.84,0,0,0,1.25-2.32,27.19,27.19,0,0,0,0-5.56A2.24,2.24,0,0,0,249.54,25a8.05,8.05,0,0,0-3.59-.6m.06,28h-7.29V21.59H246c2.71,0,4.68.42,5.89,1.25A4.87,4.87,0,0,1,253.78,27q.12,3.21,0,5.49c-.1,2.13-1.34,3.47-3.7,4v.74a5.21,5.21,0,0,1,2.8,1.41,4.13,4.13,0,0,1,.94,2.68c.07,1,.11,1.94.11,2.8s0,1.81-.11,2.83a4.9,4.9,0,0,1-1.95,4.13Q250,52.32,246,52.32m-26.36-9v9h-3V21.59H222L224.09,34l1.24,15.48h.81L227.37,34l2.07-12.39h5.38V52.32h-3v-9l.51-18.94h-.93l-2.15,19.11-1.56,8.76h-3.9l-1.55-8.76-2.17-19.11h-.91Zm-12,1.09v7.94h-3v-8L198.3,21.59h3.13l2.37,8.48,1.87,9.69h1l1.76-9.69,2.37-8.48h3.16Zm-19.18,8.23q-4,0-5.86-1.29a5,5,0,0,1-1.91-4.23c-.07-1.09-.1-2.08-.08-3s.07-1.88.14-3h2.91q-.14,1.66-.12,3.3c0,1.09,0,2.14.12,3.16a2.18,2.18,0,0,0,1.18,1.84,7.85,7.85,0,0,0,3.55.59,7.41,7.41,0,0,0,3.45-.59A2.27,2.27,0,0,0,193,47.59c.06-1,.1-1.91.09-2.66s0-1.69-.09-2.81a4.47,4.47,0,0,0-.7-2.24,3.81,3.81,0,0,0-2.73-1.18l-3.07-.56A9.86,9.86,0,0,1,182.84,37a4,4,0,0,1-1.66-2,10.76,10.76,0,0,1-.52-3c0-.79-.06-1.63,0-2.53s0-1.76.09-2.61a4.89,4.89,0,0,1,1.8-4.19c1.16-.84,3.12-1.25,5.88-1.26q3.81,0,5.54,1.28a5,5,0,0,1,1.84,4.19c0,.68.06,1.51,0,2.51s0,2-.08,3.09h-2.93c.1-1,.16-2,.16-3.06s0-2-.11-3a2.1,2.1,0,0,0-1.14-1.81,7.28,7.28,0,0,0-3.39-.58,7.4,7.4,0,0,0-3.47.58,2.15,2.15,0,0,0-1.15,1.81c-.07.91-.1,1.85-.1,2.79s0,1.89.1,2.82a4.67,4.67,0,0,0,.68,2.41,4.07,4.07,0,0,0,2.8,1.08l3,.47A9.11,9.11,0,0,1,193.85,37a4.13,4.13,0,0,1,1.67,2.08,10.19,10.19,0,0,1,.5,3c.07,1.06.1,1.93.08,2.59s0,1.45-.12,2.38a5.22,5.22,0,0,1-1.91,4.23c-1.17.86-3,1.28-5.62,1.29M173,24.35v28h-3v-28h-5.88V21.59h14.76v2.76ZM154.63,52.6q-3.94,0-5.64-1.28a5.1,5.1,0,0,1-1.81-4.19q-.39-10.18,0-20.35A5.21,5.21,0,0,1,149,22.72q1.74-1.39,5.58-1.39c2.65,0,4.59.42,5.8,1.27a5,5,0,0,1,1.91,4.2c0,.47,0,1.05,0,1.75s0,1.39,0,2.08-.05,1.3-.06,1.78h-3c0-.93.05-1.95.06-3s0-2.13-.06-3.06a2,2,0,0,0-1.06-1.85,8.11,8.11,0,0,0-3.61-.56,7.21,7.21,0,0,0-3.34.56,2.08,2.08,0,0,0-1.07,1.85q-.34,10.65,0,21.33a2.06,2.06,0,0,0,1.07,1.83,7.3,7.3,0,0,0,3.39.57,8.82,8.82,0,0,0,3.77-.57,2,2,0,0,0,1.15-1.83c0-1,0-2.09,0-3.25s-.07-2.23-.11-3.23h3.05c.07,1,.12,2,.13,3s0,2-.09,3a5,5,0,0,1-2,4.19q-1.83,1.27-5.94,1.28m-10.19-3v2.75H131.51V21.59h12.93v2.76H134.5v11.1h9.27V38.2H134.5V49.57Zm-24,3q-4.05,0-5.86-1.29a5.08,5.08,0,0,1-1.91-4.23c-.07-1.09-.1-2.08-.08-3s.07-1.88.15-3h2.9q-.14,1.66-.12,3.3c0,1.09,0,2.14.12,3.16a2.19,2.19,0,0,0,1.19,1.84,7.81,7.81,0,0,0,3.54.59,7.47,7.47,0,0,0,3.46-.59A2.25,2.25,0,0,0,125,47.59c.08-1,.11-1.91.11-2.66s0-1.69-.11-2.81a4.37,4.37,0,0,0-.69-2.24,3.79,3.79,0,0,0-2.72-1.18l-3.08-.56A9.86,9.86,0,0,1,114.86,37a4,4,0,0,1-1.65-2,10.77,10.77,0,0,1-.53-3c0-.79-.06-1.63,0-2.53s0-1.76.08-2.61a4.9,4.9,0,0,1,1.79-4.19c1.17-.84,3.14-1.25,5.89-1.26q3.81,0,5.54,1.28a5.08,5.08,0,0,1,1.85,4.19c0,.68,0,1.51,0,2.51s0,2-.09,3.09h-2.92c.09-1,.14-2,.14-3.06s0-2-.1-3a2.11,2.11,0,0,0-1.13-1.81,7.3,7.3,0,0,0-3.39-.58,7.42,7.42,0,0,0-3.48.58,2.14,2.14,0,0,0-1.14,1.81c-.08.91-.11,1.85-.11,2.79s0,1.89.11,2.82a4.57,4.57,0,0,0,.67,2.41c.39.54,1.33.91,2.81,1.08l3,.47A9.11,9.11,0,0,1,125.87,37a4.11,4.11,0,0,1,1.66,2.08,10.21,10.21,0,0,1,.51,3c.07,1.06.1,1.93.09,2.59s-.06,1.45-.13,2.38a5.22,5.22,0,0,1-1.91,4.23c-1.16.86-3,1.28-5.62,1.29M96.56,40.79l.17,11.53H93.81V21.59h5.48l2.39,9.75,4,18.23h1.21l-.5-16.75-.15-11.23h3V52.32h-5.64l-2.71-10.86L97.4,24.33H96.11Zm-7.62-19.2V52.32H86V21.59Z" transform="translate(-8.61 -8.16)"/><path class="cls-2" d="M264.75,65.29H264v-4h1.22v-.27H264v0c0-1.21.18-1.9.54-2.06a.47.47,0,0,1,.26,0,.61.61,0,0,1,.54.39,2.21,2.21,0,0,0,.28.4.4.4,0,0,0,.19.07.37.37,0,0,0,.41-.3.28.28,0,0,0,0-.09c0-.27-.17-.47-.52-.62a2.06,2.06,0,0,0-.7-.12,1.64,1.64,0,0,0-1.48.83,2.87,2.87,0,0,0-.32,1.44v.16h-.75v.27h.75v3.33c0,.33-.1.52-.28.58a1.81,1.81,0,0,1-.52.06v.26H265c0-.15-.05-.23-.16-.25h-.1m-3.64-5.78a.56.56,0,0,0-.33-.54.7.7,0,0,0-.25,0,.57.57,0,0,0-.57.59.52.52,0,0,0,.34.53,1.06,1.06,0,0,0,.23.05.55.55,0,0,0,.53-.34.69.69,0,0,0,.05-.24m.4,5.77H261V61.05h-1.64v.26h.85v3.33q0,.49-.33.6a3,3,0,0,1-.52,0v.27h2.44c0-.16,0-.24-.16-.26h-.11m-7-2a2,2,0,0,1,.8-1.95,1.25,1.25,0,0,1,.56-.14A1.15,1.15,0,0,1,257,62a2.84,2.84,0,0,1,.17,1,2.42,2.42,0,0,1-.63,1.85,1.16,1.16,0,0,1-.77.3c-.58,0-1-.35-1.13-1a3,3,0,0,1-.11-.89m2.62,1.14.09,1.12h1.51c0-.16,0-.24-.16-.26H258l0-6.61h-1.8v.26h1v2.59a1.76,1.76,0,0,0-1.39-.57A1.89,1.89,0,0,0,254,62a3,3,0,0,0-.36,1.43,2.21,2.21,0,0,0,.83,1.91,1.69,1.69,0,0,0,1,.34,1.78,1.78,0,0,0,1.67-1.23m-9.07.8a.74.74,0,0,1-.79-.64,1.27,1.27,0,0,1,0-.34c0-.47.27-.77.82-.89a5.91,5.91,0,0,1,1.26-.11v.84a1.41,1.41,0,0,1-.77,1,1.13,1.13,0,0,1-.48.11m2.11.43c.54,0,.84-.33.9-1,0,0,0-.07,0-.11h-.28c-.05.52-.18.78-.41.78s-.28-.2-.29-.55V62.54A1.43,1.43,0,0,0,248.9,61a1.22,1.22,0,0,0-.27,0h-.19a1.88,1.88,0,0,0-1.59.54.69.69,0,0,0-.13.37.34.34,0,0,0,.3.37h0l.11,0c.16,0,.28-.11.35-.32a3.82,3.82,0,0,1,.21-.46.71.71,0,0,1,.62-.27,1,1,0,0,1,1,1,.56.56,0,0,1,0,.13V63c-1.66,0-2.61.34-2.84,1a1.29,1.29,0,0,0-.07.43,1.09,1.09,0,0,0,.71,1.11,1.53,1.53,0,0,0,.6.12,1.81,1.81,0,0,0,1.31-.54,1.34,1.34,0,0,0,.28-.42q.12.94.87,1m-6.64-1.13-.27-.1a1.43,1.43,0,0,1-1.2.91l-.19,0q-1.12,0-1.41-1.32a4.57,4.57,0,0,1-.09-.82l1.27,0a3.14,3.14,0,0,0,1.66-.24.72.72,0,0,0,.29-.61,1.28,1.28,0,0,0-.74-1.14,2.24,2.24,0,0,0-1.19-.3A2,2,0,0,0,239.81,62a2.79,2.79,0,0,0-.3,1.3,2.2,2.2,0,0,0,.94,1.94,2.31,2.31,0,0,0,1.28.38,1.86,1.86,0,0,0,1.68-.84,2.69,2.69,0,0,0,.16-.29m-1.85-3.33a1,1,0,0,1,1,.63,1.32,1.32,0,0,1,.08.44.59.59,0,0,1-.5.64,3.21,3.21,0,0,1-.76,0l-1.12,0a1.68,1.68,0,0,1,.79-1.59,1.07,1.07,0,0,1,.52-.14m-5.53,4.08h-.48V63.72l.58-.54,1.49,2.37h1.41c0-.16-.05-.24-.16-.26h-.49l-1.69-2.62,1-.93a1.49,1.49,0,0,1,.57-.39.58.58,0,0,1,.19,0c.15,0,.24-.05.25-.16a.17.17,0,0,0,0-.1h-1.8v.26h.8l-2.14,2V58.67h-1.59v.26h.8v5.71c0,.33-.09.53-.28.59a2.24,2.24,0,0,1-.52,0v.27h2.33c0-.16,0-.24-.16-.26h-.1m-5.46,0a.75.75,0,0,1-.8-.64,2,2,0,0,1,0-.34.88.88,0,0,1,.81-.89,6,6,0,0,1,1.27-.11v.84a1.42,1.42,0,0,1-.78,1,1.12,1.12,0,0,1-.47.11m2.1.43c.54,0,.84-.34.9-1a.37.37,0,0,0,0-.11h-.28c0,.52-.18.78-.41.78s-.27-.2-.28-.55V62.54A1.43,1.43,0,0,0,231.53,61a1.31,1.31,0,0,0-.28,0h-.18a1.87,1.87,0,0,0-1.59.54.62.62,0,0,0-.13.37.34.34,0,0,0,.3.37h0l.1,0c.16,0,.28-.11.36-.32a2.67,2.67,0,0,1,.2-.46.73.73,0,0,1,.63-.27,1,1,0,0,1,1,1V63c-1.66,0-2.61.34-2.85,1a1.28,1.28,0,0,0-.06.43,1.09,1.09,0,0,0,.7,1.11,1.58,1.58,0,0,0,.61.12,1.77,1.77,0,0,0,1.3-.54,1.34,1.34,0,0,0,.28-.42c.09.63.38.94.87,1m-10.39-.37H222V63a1.69,1.69,0,0,1,.64-1.38,1,1,0,0,1,.58-.21.72.72,0,0,1,.73.57,1.61,1.61,0,0,1,.08.57v2.1c0,.33-.07.52-.23.58a1.67,1.67,0,0,1-.5.06v.26h2.27c0-.15-.05-.23-.16-.25h-.58V62.58a1.51,1.51,0,0,1,.75-1.08,1,1,0,0,1,.42-.11.8.8,0,0,1,.77.57,1.7,1.7,0,0,1,.1.59v2.1c0,.33-.07.52-.23.58a1.78,1.78,0,0,1-.51.06v.26h2.34c0-.15-.05-.23-.16-.25h-.64V62.66a1.64,1.64,0,0,0-.71-1.52,1.4,1.4,0,0,0-.69-.19,1.48,1.48,0,0,0-1.29.75,2.24,2.24,0,0,0-.22.4,1.38,1.38,0,0,0-.83-1.08,1.29,1.29,0,0,0-.4-.07,1.55,1.55,0,0,0-1.25.64,1.88,1.88,0,0,0-.28.52l-.05-1.06h-1.54v.27h.8v3.33c0,.33-.09.52-.28.58a1.81,1.81,0,0,1-.52.06v.26h2.34c0-.14-.05-.23-.16-.25h-.11m-5.91,0h-.76v-2.1a2.11,2.11,0,0,1,.59-1.55.68.68,0,0,1,.39-.23c.12,0,.23.08.33.26a.66.66,0,0,0,.32.34l.13,0a.36.36,0,0,0,.39-.3.2.2,0,0,0,0-.13.53.53,0,0,0-.48-.58l-.2,0a1.52,1.52,0,0,0-1.14.53,2.28,2.28,0,0,0-.36.57l0-1h-1.53v.26h.8v3.33c0,.33-.09.53-.28.59a2.24,2.24,0,0,1-.52,0v.27h2.62c0-.16-.06-.24-.16-.26h-.11m-3.13-.75-.26-.1a1.43,1.43,0,0,1-1.2.91l-.2,0c-.74,0-1.21-.44-1.39-1.32a3.85,3.85,0,0,1-.11-.82l1.27,0a3.18,3.18,0,0,0,1.67-.24.72.72,0,0,0,.29-.61,1.29,1.29,0,0,0-.73-1.14,2.3,2.3,0,0,0-1.2-.3,2,2,0,0,0-1.9,1.09,2.78,2.78,0,0,0-.29,1.3,2.2,2.2,0,0,0,.94,1.94,2.34,2.34,0,0,0,1.28.38,1.86,1.86,0,0,0,1.68-.84,1.59,1.59,0,0,0,.15-.29m-1.84-3.33a1,1,0,0,1,1,.63,1.12,1.12,0,0,1,.09.44.59.59,0,0,1-.51.64,3.15,3.15,0,0,1-.75,0l-1.13,0a1.71,1.71,0,0,1,.8-1.59,1.07,1.07,0,0,1,.52-.14m-6.22,4.08h-.54V63a1.55,1.55,0,0,1,.68-1.4,1,1,0,0,1,.57-.18.89.89,0,0,1,.89.6,1.56,1.56,0,0,1,.13.64v2c0,.33-.08.53-.24.59a2.21,2.21,0,0,1-.51,0v.27h2.33c0-.16-.05-.24-.16-.26h-.64V62.66a1.6,1.6,0,0,0-.76-1.57,1.24,1.24,0,0,0-.63-.14,1.71,1.71,0,0,0-1.32.57,2.15,2.15,0,0,0-.34.54V58.67h-1.58v.26h.8v5.71c0,.33-.1.53-.28.59a2.24,2.24,0,0,1-.52,0v.27h2.38c0-.16,0-.24-.16-.26h-.1m-5.69-4.23v.26h.75v3c0,.88.45,1.33,1.21,1.36s1.06-.39,1.22-1.19v0l-.29-.06c-.17.59-.43.91-.77,1s-.57-.28-.58-.81V61.31h1.64v-.26h-1.64V59.82l-.79.22v1ZM199,64.53l-.27-.1a1.4,1.4,0,0,1-1.19.91l-.2,0c-.74,0-1.21-.44-1.4-1.32a4.59,4.59,0,0,1-.1-.82l1.27,0a3.14,3.14,0,0,0,1.66-.24.67.67,0,0,0,.29-.61,1.27,1.27,0,0,0-.73-1.14,2.27,2.27,0,0,0-1.19-.3,2,2,0,0,0-1.9,1.09,2.78,2.78,0,0,0-.29,1.3,2.16,2.16,0,0,0,.94,1.94,2.28,2.28,0,0,0,1.27.38,1.86,1.86,0,0,0,1.69-.84,1.59,1.59,0,0,0,.15-.29m-1.84-3.33a1,1,0,0,1,1,.63,1.12,1.12,0,0,1,.09.44.6.6,0,0,1-.51.64,3.15,3.15,0,0,1-.75,0l-1.13,0a1.69,1.69,0,0,1,.8-1.59,1.07,1.07,0,0,1,.52-.14m-5.28,6.08c-.7,0-1.14-.18-1.32-.55a.61.61,0,0,1-.08-.3.9.9,0,0,1,.25-.57,2.27,2.27,0,0,0,.35,0l1.64,0c.52,0,.83.12.91.36a.76.76,0,0,1,0,.21c0,.31-.29.54-.87.68a4,4,0,0,1-.91.1m0-6.33a1.92,1.92,0,0,0-1.52.61,1.57,1.57,0,0,0,.38,2.4.51.51,0,0,0,.16.09.79.79,0,0,0-.85.59.84.84,0,0,0,0,.27,1,1,0,0,0,.46.84,1.06,1.06,0,0,0-.35.75.94.94,0,0,0,.69.87,2.6,2.6,0,0,0,1.07.18,2.34,2.34,0,0,0,2.12-.78,1,1,0,0,0,.17-.56c0-.6-.35-1-1-1l-.29,0-1.93,0c-.32,0-.49-.16-.49-.42s.11-.3.34-.35h1.1a1.9,1.9,0,0,0,1.5-.63,1.61,1.61,0,0,0,.4-1.09,1.59,1.59,0,0,0-.61-1.27.48.48,0,0,1,.36-.39.11.11,0,0,1,.08,0,.49.49,0,0,1,.32.16.33.33,0,0,0,.21.11.41.41,0,0,0,.31-.34.43.43,0,0,0-.31-.44.69.69,0,0,0-.24-.05,1,1,0,0,0-.8.44,2.53,2.53,0,0,0-.18.37,2.15,2.15,0,0,0-1-.23m-1.07,1.66q0-1.39,1.05-1.41c.7,0,1,.49,1,1.41s-.36,1.44-1,1.46-1.05-.5-1.05-1.46M186.75,61a2.23,2.23,0,0,0-1.69.69,2.47,2.47,0,0,0,.22,3.5.69.69,0,0,0,.13.11,2.26,2.26,0,0,0,1.31.41,2.22,2.22,0,0,0,1.69-.73,2.29,2.29,0,0,0,.61-1.64,2.21,2.21,0,0,0-1-2,2.32,2.32,0,0,0-1.28-.36m-1.42,2.34c0-1.09.31-1.76.91-2a1.32,1.32,0,0,1,.48-.09c.79,0,1.24.5,1.36,1.48a3.64,3.64,0,0,1,0,.57c0,1.18-.33,1.88-1,2.09a1.83,1.83,0,0,1-.4,0c-.71,0-1.16-.43-1.34-1.27a4.58,4.58,0,0,1-.08-.83m-4.55-2.24v.26h.75v3c0,.88.45,1.33,1.21,1.36s1.06-.39,1.22-1.19v0l-.29-.06c-.17.59-.43.91-.77,1s-.57-.28-.58-.81V61.31H184v-.26h-1.64V59.82l-.79.22v1Zm-7.55,0v.26H174v3c0,.88.46,1.33,1.22,1.36s1.06-.39,1.22-1.19v0l-.28-.06c-.18.59-.44.91-.78,1s-.58-.28-.58-.81V61.31h1.64v-.26h-1.64V59.82L174,60v1Zm-3.86,4.24h-.47V63a1.62,1.62,0,0,1,.7-1.41,1,1,0,0,1,.58-.18.85.85,0,0,1,.88.6,1.65,1.65,0,0,1,.09.54v2.1c0,.33-.09.52-.27.58a1.85,1.85,0,0,1-.52.06v.26h2.38c0-.15-.05-.23-.16-.25h-.64V62.66a1.63,1.63,0,0,0-.72-1.51,1.46,1.46,0,0,0-.73-.2,1.6,1.6,0,0,0-1.3.62,2.86,2.86,0,0,0-.3.54l0-1.06h-1.53v.27h.78v3.33c0,.33-.09.52-.27.58a1.78,1.78,0,0,1-.51.06v.26h2.32c0-.15,0-.23-.16-.25h-.11M164.31,61a2.27,2.27,0,0,0-1.7.69,2.48,2.48,0,0,0,.22,3.5l.13.11a2.28,2.28,0,0,0,1.31.41,2.22,2.22,0,0,0,1.69-.73,2.29,2.29,0,0,0,.61-1.64,2.2,2.2,0,0,0-1-2,2.32,2.32,0,0,0-1.28-.36m-1.42,2.34c0-1.09.3-1.76.9-2a1.32,1.32,0,0,1,.48-.09c.79,0,1.24.5,1.37,1.48a3.63,3.63,0,0,1,0,.57c0,1.18-.32,1.88-1,2.09a1.74,1.74,0,0,1-.39,0c-.71,0-1.16-.43-1.35-1.27a3.83,3.83,0,0,1-.07-.83m-2.3-3.78a.57.57,0,0,0-.33-.54.64.64,0,0,0-.24,0,.61.61,0,0,0-.59.59.53.53,0,0,0,.36.53.59.59,0,0,0,.23.05.53.53,0,0,0,.52-.34.69.69,0,0,0,.05-.24m.4,5.77h-.53V61.05h-1.64v.26h.84v3.33c0,.33-.11.53-.32.6a3,3,0,0,1-.52,0v.27h2.43c0-.16-.05-.24-.16-.26H161m-5.05-3.92c.57,0,.95.36,1.13,1.07a3.26,3.26,0,0,1,.1.88c0,1-.26,1.64-.8,1.94a1.22,1.22,0,0,1-.56.14,1.14,1.14,0,0,1-1.12-.85,3,3,0,0,1-.16-1,2.35,2.35,0,0,1,.63-1.86,1.17,1.17,0,0,1,.78-.3m0,4.3a2.05,2.05,0,0,0,1.57-.71,2.85,2.85,0,0,0,0-3.53,1.58,1.58,0,0,0-1.18-.47,1.68,1.68,0,0,0-1.64,1l-.09.19v-3.5H153v.26h.79v5.71c0,.33-.08.53-.27.59a2.24,2.24,0,0,1-.52,0v.27h1.33l.1-.7a1.66,1.66,0,0,0,1.38.79l.15,0m-9.49-.37h-.48V63a1.66,1.66,0,0,1,.65-1.38.91.91,0,0,1,.57-.21.72.72,0,0,1,.73.57,1.88,1.88,0,0,1,.09.57v2.1c0,.33-.08.52-.24.58a1.67,1.67,0,0,1-.5.06v.26h2.27c0-.15,0-.23-.16-.25h-.58V62.58a1.51,1.51,0,0,1,.75-1.08,1.05,1.05,0,0,1,.43-.11.79.79,0,0,1,.76.57,1.71,1.71,0,0,1,.11.59v2.1c0,.33-.08.52-.24.58a1.78,1.78,0,0,1-.51.06v.26h2.34c0-.15,0-.23-.16-.25h-.64V62.66a1.64,1.64,0,0,0-.71-1.52,1.4,1.4,0,0,0-.69-.19,1.48,1.48,0,0,0-1.29.75,2.24,2.24,0,0,0-.22.4,1.36,1.36,0,0,0-.83-1.08,1.28,1.28,0,0,0-.39-.07,1.56,1.56,0,0,0-1.26.64,1.88,1.88,0,0,0-.28.52l-.05-1.06h-1.54v.27h.8v3.33c0,.33-.09.52-.28.58a1.81,1.81,0,0,1-.52.06v.26h2.34c0-.14-.05-.23-.16-.25h-.11M140,67.23c-.12,0-.2-.09-.26-.25a.8.8,0,0,0-.22-.39.34.34,0,0,0-.22-.07.37.37,0,0,0-.4.3v.07a.61.61,0,0,0,.46.59,1.37,1.37,0,0,0,.45.07,1.71,1.71,0,0,0,1.45-1,6.34,6.34,0,0,0,.48-1l1.57-3.87c.07-.2.15-.31.23-.34h.17c.14,0,.22,0,.24-.13a.4.4,0,0,0,0-.15h-1.62v.28h.78l-1.35,3.38-1.45-3.38h.7v-.28H139v.28h.52l1.9,4.22c-.39.93-.76,1.47-1.11,1.61a.59.59,0,0,1-.29.07m-3.31-1.86a1.07,1.07,0,0,0,1-.44.74.74,0,0,0,.09-.36c0-.29-.21-.55-.64-.76-.09,0-.24-.12-.46-.21a3.69,3.69,0,0,1-1.15-.67,1.25,1.25,0,0,1-.31-.82,1.06,1.06,0,0,1,.81-1,2.2,2.2,0,0,1,.8-.13,2.33,2.33,0,0,1,1.21.29c0-.2.05-.33.15-.35h.14V62.2H138c0-.65-.38-1-1.08-1-.53,0-.86.15-1,.46a.66.66,0,0,0-.06.27c0,.3.22.56.66.77l.46.21a3,3,0,0,1,1.15.66,1.19,1.19,0,0,1-.61,2,2.42,2.42,0,0,1-.76.12,2.46,2.46,0,0,1-1.32-.39c0,.18-.05.29-.14.32h-.15V64h.3c0,.91.41,1.37,1.19,1.38m-8.56-2.08a2.06,2.06,0,0,1,.8-1.95,1.26,1.26,0,0,1,.57-.14,1.12,1.12,0,0,1,1.09.84,2.63,2.63,0,0,1,.19,1,2.39,2.39,0,0,1-.64,1.85,1.12,1.12,0,0,1-.76.3q-.88,0-1.14-1a3.87,3.87,0,0,1-.11-.89m2.62,1.14.09,1.12h1.52c0-.16-.05-.24-.16-.26h-.64l0-6.61h-1.8v.26h1v2.59a1.77,1.77,0,0,0-1.4-.57,1.9,1.9,0,0,0-1.76,1,3,3,0,0,0-.36,1.43,2.21,2.21,0,0,0,.83,1.91,1.74,1.74,0,0,0,1,.34,1.77,1.77,0,0,0,1.66-1.23m-7.57.86h-.47V63a1.61,1.61,0,0,1,.69-1.41,1,1,0,0,1,.58-.18.87.87,0,0,1,.89.6,1.65,1.65,0,0,1,.09.54v2.1c0,.33-.09.52-.28.58a1.81,1.81,0,0,1-.52.06v.26h2.38c0-.15,0-.23-.16-.25h-.63V62.66a1.6,1.6,0,0,0-.73-1.51,1.43,1.43,0,0,0-.73-.2,1.6,1.6,0,0,0-1.29.62,2.43,2.43,0,0,0-.31.54l0-1.06h-1.53v.27h.79v3.33c0,.33-.09.52-.27.58a1.85,1.85,0,0,1-.52.06v.26h2.32c0-.15,0-.23-.15-.25h-.11m-5.45-.06a.75.75,0,0,1-.8-.64,1.94,1.94,0,0,1,0-.34.88.88,0,0,1,.81-.89,6,6,0,0,1,1.26-.11v.84a1.42,1.42,0,0,1-.78,1,1.12,1.12,0,0,1-.47.11m2.11.43c.54,0,.84-.34.89-1a.36.36,0,0,0,0-.11h-.28c0,.52-.19.78-.41.78s-.28-.2-.29-.55V62.54A1.43,1.43,0,0,0,118.54,61a1.31,1.31,0,0,0-.28,0h-.18a1.87,1.87,0,0,0-1.59.54.61.61,0,0,0-.12.37.33.33,0,0,0,.29.37h0l.11,0c.16,0,.28-.11.36-.32a2.67,2.67,0,0,1,.2-.46.71.71,0,0,1,.62-.27,1,1,0,0,1,1,1V63c-1.66,0-2.61.34-2.85,1a1.59,1.59,0,0,0-.06.43,1.09,1.09,0,0,0,.7,1.11,1.62,1.62,0,0,0,.61.12,1.77,1.77,0,0,0,1.3-.54,1.37,1.37,0,0,0,.29-.42c.08.63.37.94.87,1m-9.43-4.61v.26h.74v3c0,.88.45,1.33,1.22,1.36s1.05-.39,1.21-1.19v0l-.29-.06c-.17.59-.43.91-.76,1s-.58-.28-.59-.81V61.31h1.64v-.26H112V59.82l-.79.22v1ZM106,63.34a2.14,2.14,0,0,0,1,1.92,2.33,2.33,0,0,0,1.32.4,1.94,1.94,0,0,0,1.66-.78,1.58,1.58,0,0,0,.2-.36l-.27-.09a1.52,1.52,0,0,1-1.3.91l-.17,0a1.3,1.3,0,0,1-1.17-.75,2.81,2.81,0,0,1-.32-1.36,2,2,0,0,1,.73-1.85,1.26,1.26,0,0,1,.68-.2.63.63,0,0,1,.69.45c0,.06,0,.15,0,.27a.73.73,0,0,0,.24.53.86.86,0,0,0,.23.06.39.39,0,0,0,.45-.3.59.59,0,0,0,0-.13,1,1,0,0,0-.69-.9,2.28,2.28,0,0,0-1.06-.23,2,2,0,0,0-2,1.14,3,3,0,0,0-.27,1.25m-.86,1.19-.27-.1a1.42,1.42,0,0,1-1.19.91l-.2,0c-.75,0-1.21-.44-1.4-1.32a4.59,4.59,0,0,1-.1-.82l1.27,0a3.14,3.14,0,0,0,1.66-.24.7.7,0,0,0,.29-.61,1.27,1.27,0,0,0-.73-1.14,2.28,2.28,0,0,0-1.2-.3A2,2,0,0,0,101.41,62a2.78,2.78,0,0,0-.29,1.3,2.17,2.17,0,0,0,.93,1.94,2.35,2.35,0,0,0,1.29.38,1.85,1.85,0,0,0,1.67-.84,2.69,2.69,0,0,0,.16-.29m-1.84-3.33a1,1,0,0,1,1,.63,1.11,1.11,0,0,1,.08.44.59.59,0,0,1-.5.64,3.15,3.15,0,0,1-.75,0l-1.13,0a1.7,1.7,0,0,1,.79-1.59,1.08,1.08,0,0,1,.53-.14m-4.86,4.17a1.06,1.06,0,0,0,1-.44.65.65,0,0,0,.1-.36c0-.29-.22-.55-.64-.76l-.46-.21a3.63,3.63,0,0,1-1.16-.67,1.24,1.24,0,0,1-.3-.82,1.06,1.06,0,0,1,.8-1,2.2,2.2,0,0,1,.8-.13,2.33,2.33,0,0,1,1.21.29c0-.2,0-.33.15-.35h.14V62.2h-.27c0-.65-.38-1-1.09-1-.52,0-.85.15-1,.46a.65.65,0,0,0,0,.27c0,.3.22.56.65.77l.47.21a3,3,0,0,1,1.14.66,1.18,1.18,0,0,1,.31.8,1.14,1.14,0,0,1-.91,1.15,2.46,2.46,0,0,1-2.09-.27c0,.18,0,.29-.13.32H97V64h.29c0,.91.42,1.37,1.19,1.38m-5.64-.08h-.48V63a1.6,1.6,0,0,1,.7-1.41,1,1,0,0,1,.58-.18.85.85,0,0,1,.88.6,1.26,1.26,0,0,1,.09.54v2.1c0,.33-.09.52-.27.58a1.81,1.81,0,0,1-.52.06v.26h2.38c0-.15,0-.23-.16-.25H95.4V62.66a1.65,1.65,0,0,0-.73-1.51,1.43,1.43,0,0,0-.73-.2,1.6,1.6,0,0,0-1.29.62,2.43,2.43,0,0,0-.31.54l0-1.06H90.76v.27h.8v3.33c0,.33-.1.52-.28.58a1.81,1.81,0,0,1-.52.06v.26H93.1c0-.15-.06-.23-.16-.25h-.11m-5.39.26H90c0-.16,0-.25-.17-.27h-.67v-5.8H90V59.2H87.44v.27h.84v5.8h-.84Z" transform="translate(-8.61 -8.16)"/><path class="cls-2" d="M298,64.46l-.26-.09a1.46,1.46,0,0,1-1.2.91h-.2c-.74,0-1.21-.44-1.39-1.32a3.23,3.23,0,0,1-.1-.82l1.28,0a3.23,3.23,0,0,0,1.65-.25.72.72,0,0,0,.29-.61,1.29,1.29,0,0,0-.73-1.14,2.3,2.3,0,0,0-1.2-.3,2,2,0,0,0-1.89,1.1,2.63,2.63,0,0,0-.3,1.29,2.17,2.17,0,0,0,2.23,2.32,1.87,1.87,0,0,0,1.68-.83c.05-.1.1-.2.14-.3m-1.84-3.32a1,1,0,0,1,1,.63,1.22,1.22,0,0,1,.08.43.59.59,0,0,1-.51.64,3.12,3.12,0,0,1-.75,0l-1.12,0a1.67,1.67,0,0,1,.8-1.59.9.9,0,0,1,.51-.13m-6.81,2.14a2.14,2.14,0,0,0,.94,1.91,2.23,2.23,0,0,0,1.32.4,1.92,1.92,0,0,0,1.66-.77,1.9,1.9,0,0,0,.2-.37l-.27-.09a1.5,1.5,0,0,1-1.29.92h-.17a1.29,1.29,0,0,1-1.18-.75,2.92,2.92,0,0,1-.31-1.36,2,2,0,0,1,.73-1.85,1.14,1.14,0,0,1,.67-.19.61.61,0,0,1,.69.45,1.7,1.7,0,0,1,.05.26.77.77,0,0,0,.24.53.88.88,0,0,0,.23.07.39.39,0,0,0,.45-.3.35.35,0,0,0,0-.14,1,1,0,0,0-.69-.89,2.42,2.42,0,0,0-1.06-.24,2,2,0,0,0-2,1.15,2.83,2.83,0,0,0-.26,1.25m-4.06,1.94h-.47V62.94a1.6,1.6,0,0,1,.7-1.42,1.07,1.07,0,0,1,.58-.18.86.86,0,0,1,.88.6,1.71,1.71,0,0,1,.09.55v2.1c0,.32-.09.52-.27.58a1.84,1.84,0,0,1-.52,0v.27h2.38c0-.16-.05-.24-.16-.26h-.63V62.6a1.65,1.65,0,0,0-.73-1.51,1.36,1.36,0,0,0-.73-.2,1.6,1.6,0,0,0-1.3.62,2.35,2.35,0,0,0-.3.54l0-1.06h-1.54v.26h.79v3.34c0,.32-.09.52-.27.58a1.84,1.84,0,0,1-.52,0v.27h2.33c0-.16-.05-.24-.16-.26h-.11m-2.81-.76-.26-.09a1.48,1.48,0,0,1-1.2.91h-.2c-.74,0-1.21-.44-1.4-1.32a3.75,3.75,0,0,1-.09-.82l1.27,0a3.26,3.26,0,0,0,1.66-.25.69.69,0,0,0,.28-.61,1.27,1.27,0,0,0-.73-1.14,2.34,2.34,0,0,0-1.19-.3,2,2,0,0,0-1.9,1.1,2.88,2.88,0,0,0-.3,1.29,2.19,2.19,0,0,0,2.23,2.32,1.75,1.75,0,0,0,1.83-1.13m-1.85-3.32a1,1,0,0,1,1,.63,1.21,1.21,0,0,1,.07.43.59.59,0,0,1-.5.64,3.16,3.16,0,0,1-.75,0l-1.12,0a1.66,1.66,0,0,1,.79-1.59.93.93,0,0,1,.51-.13m-4.09,4.07h-.76v-2.1a2.07,2.07,0,0,1,.59-1.55.68.68,0,0,1,.39-.23c.12,0,.23.09.33.26a.66.66,0,0,0,.32.34.27.27,0,0,0,.13,0,.36.36,0,0,0,.39-.3.3.3,0,0,0,0-.13.54.54,0,0,0-.48-.58l-.2,0a1.53,1.53,0,0,0-1.14.54,2.12,2.12,0,0,0-.36.57L275.76,61h-1.53v.27H275v3.33c0,.33-.09.52-.27.58a1.8,1.8,0,0,1-.52,0v.27h2.62c0-.16-.06-.24-.17-.25l-.1,0m-3.13-.75-.27-.09a1.44,1.44,0,0,1-1.19.91h-.2c-.75,0-1.21-.44-1.4-1.32a4.48,4.48,0,0,1-.1-.82l1.27,0a3.15,3.15,0,0,0,1.66-.25.67.67,0,0,0,.29-.61,1.27,1.27,0,0,0-.72-1.14,2.4,2.4,0,0,0-1.2-.3,2,2,0,0,0-1.9,1.1,2.74,2.74,0,0,0-.29,1.29,2.14,2.14,0,0,0,.94,1.94,2.18,2.18,0,0,0,1.28.38,1.85,1.85,0,0,0,1.68-.83,2.1,2.1,0,0,0,.15-.3m-1.84-3.32a1,1,0,0,1,1,.63,1,1,0,0,1,.09.43.6.6,0,0,1-.51.64,3.16,3.16,0,0,1-.75,0l-1.13,0a1.7,1.7,0,0,1,.8-1.59,1.06,1.06,0,0,1,.52-.13m-3.19,4.08h-.74v-4h1.22V61h-1.22v-.06c0-1.21.18-1.89.54-2.06a.7.7,0,0,1,.25,0,.65.65,0,0,1,.55.39,2.33,2.33,0,0,0,.27.4.31.31,0,0,0,.2.07.36.36,0,0,0,.41-.3.28.28,0,0,0,0-.09c0-.27-.18-.47-.53-.61a1.8,1.8,0,0,0-2.16.7,2.78,2.78,0,0,0-.34,1.44V61h-.73v.26h.73v3.34c0,.32-.09.52-.27.58a1.84,1.84,0,0,1-.52,0v.27h2.59c0-.16-.05-.24-.16-.26h-.1" transform="translate(-8.61 -8.16)"/><path class="cls-3" d="M44.36,8.24a5.64,5.64,0,0,0-.93-.08H29A5.75,5.75,0,0,0,24,11L9.38,36.32a5.78,5.78,0,0,0,0,5.75L24,67.34a5.73,5.73,0,0,0,5,2.87h7.72l-17.92-31L30.08,19.56h0l2.1-3.63A15.53,15.53,0,0,1,44.36,8.24Z" transform="translate(-8.61 -8.16)"/><path class="cls-4" d="M56.32,24.73,48.41,11a5.76,5.76,0,0,0-4-2.79,15.53,15.53,0,0,0-12.18,7.68l-2.1,3.63a3.73,3.73,0,0,1,3.21-1.85h5.82a3.69,3.69,0,0,1,3.2,1.86l2.88,5a4.46,4.46,0,0,1-1,5.66L39,34.47a2.38,2.38,0,0,0-.26,0,1.9,1.9,0,1,0,1.89,1.89,2.74,2.74,0,0,0-.05-.28l5-4.13a2.86,2.86,0,0,1,4.31.77v0A3.84,3.84,0,0,1,49,37.58L43.11,42.5a1.22,1.22,0,0,0-.26-.06,1.9,1.9,0,1,0,1.89,1.9,1.27,1.27,0,0,0-.06-.28l5-4.18A2,2,0,0,1,53,41a27.05,27.05,0,0,1-.64,13.12l-.19.61,2-2.52A24.41,24.41,0,0,0,56.32,24.73Z" transform="translate(-8.61 -8.16)"/><path class="cls-5" d="M42.69,70.13a5.84,5.84,0,0,0,.93.08H58.09a5.75,5.75,0,0,0,5-2.87l14.6-25.29a5.74,5.74,0,0,0,0-5.75L63.1,11a5.75,5.75,0,0,0-5-2.87H50.39l17.92,31L57,58.81h0l-2.1,3.64A15.53,15.53,0,0,1,42.69,70.13Z" transform="translate(-8.61 -8.16)"/><path class="cls-6" d="M53.76,60.67H48a3.72,3.72,0,0,1-3.21-1.85l-1.93-3.35a2.87,2.87,0,0,1,.65-3.65l3.72-3.1a1.18,1.18,0,0,0,.27.06,1.9,1.9,0,1,0-1.9-1.9,1.5,1.5,0,0,0,.06.29l-2,1.66a3.34,3.34,0,0,1-5.07-1l-.05-.09a3.34,3.34,0,0,1,.81-4.14l5-4.18a1.18,1.18,0,0,0,.27.06,1.9,1.9,0,1,0-1.9-1.9,1.27,1.27,0,0,0,.06.28l-2.8,2.33a3.52,3.52,0,0,1-5.68-1.91v-.08a3.52,3.52,0,0,1,1.18-3.5l5.76-4.79a2.16,2.16,0,0,0,.27.05,1.9,1.9,0,1,0-1.9-1.9,1.5,1.5,0,0,0,.06.29l-4.23,3.52A1.11,1.11,0,0,1,33.57,31a26.91,26.91,0,0,1,1.11-6.75l.19-.61-2,2.52a24.4,24.4,0,0,0-2.11,27.48l1.72,3h0l6.18,10.72a5.78,5.78,0,0,0,4,2.79,15.53,15.53,0,0,0,12.18-7.68L57,58.82A3.71,3.71,0,0,1,53.76,60.67Z" transform="translate(-8.61 -8.16)"/><path class="cls-7" d="M45.62,55.1a1.74,1.74,0,0,0,1,.74h.13a.25.25,0,0,0,0-.09c-.1-.16-.2-.31-.29-.47a3,3,0,0,1-.18-.41.17.17,0,0,1,0-.12A5.23,5.23,0,0,0,47,56c-.07-.19-.14-.38-.2-.56A6.21,6.21,0,0,1,46.45,53a3.19,3.19,0,0,1,.44-1.44,1.35,1.35,0,0,1,.81-.62.23.23,0,0,1,.32.18,1.27,1.27,0,0,1,.06.39c0,.25,0,.5,0,.75a1,1,0,0,0,.09.48l0,0a.43.43,0,0,1,.09.44,5,5,0,0,1-.4,1c0,.11-.1.21-.14.32l0-.06a9.5,9.5,0,0,1,1.24-1.7,3.36,3.36,0,0,1,1.42-.92.93.93,0,0,1,.24,0,.24.24,0,0,1,.29.27,1.7,1.7,0,0,1-.17.54c-.09.22-.19.45-.27.68a.86.86,0,0,0,0,.45c.06.25.11.5.15.76a1.23,1.23,0,0,1-.07.63c-.06.13-.14.25-.3.24a.25.25,0,0,0-.18.4,1.83,1.83,0,0,0,.13.16,8.8,8.8,0,0,1,1,1.31,5.72,5.72,0,0,1,.41.67.35.35,0,0,1-.23.58,2.59,2.59,0,0,1-.62.1,8,8,0,0,1-.85,0,.89.89,0,0,1-.5-.18l-1-.76-.42-.32a.61.61,0,0,0-.14-.07c-.07,0-.1,0-.07.08a.54.54,0,0,0,.05.11c.11.18.22.36.31.54a.44.44,0,0,1,0,.2.07.07,0,0,1,0,.06s-.05,0-.06,0L48,57.88a7.65,7.65,0,0,0-.43-.67,1.62,1.62,0,0,0-.33-.31.71.71,0,0,1-.28-.36,1.52,1.52,0,0,1,0-.21.23.23,0,0,0-.14-.22,3.86,3.86,0,0,1-.86-.59,1,1,0,0,1-.27-.35A.15.15,0,0,1,45.62,55.1Z" transform="translate(-8.61 -8.16)"/><path class="cls-8" d="M41.72,23.08a1.76,1.76,0,0,1-1,.74H40.6a.25.25,0,0,1,0-.09c.09-.16.2-.31.29-.47s.12-.27.18-.41a.24.24,0,0,0,0-.12A5.59,5.59,0,0,1,40.34,24c.07-.19.14-.38.2-.56a6.38,6.38,0,0,0,.34-2.45,3.11,3.11,0,0,0-.44-1.45,1.32,1.32,0,0,0-.81-.61.22.22,0,0,0-.31.18,1.68,1.68,0,0,0-.07.39c0,.25,0,.5,0,.75a1.28,1.28,0,0,1-.09.48.1.1,0,0,1,0,.05.42.42,0,0,0-.08.44,4.47,4.47,0,0,0,.4,1c0,.11.1.21.14.32a.21.21,0,0,1,0-.06,10,10,0,0,0-1.24-1.7,3.43,3.43,0,0,0-1.42-.92l-.24-.05a.24.24,0,0,0-.29.28,1.38,1.38,0,0,0,.17.53l.27.69a.86.86,0,0,1,0,.45c-.05.25-.11.5-.14.75a1.16,1.16,0,0,0,.07.64.32.32,0,0,0,.29.24.24.24,0,0,1,.18.4,1.67,1.67,0,0,1-.12.16,8.2,8.2,0,0,0-1,1.31,7.57,7.57,0,0,0-.42.67.36.36,0,0,0,.24.58,2.59,2.59,0,0,0,.62.1,8,8,0,0,0,.85,0,.86.86,0,0,0,.5-.19c.34-.24.66-.49,1-.75l.42-.32.14-.07c.06,0,.09,0,.07.08a.6.6,0,0,1-.06.11c-.1.18-.21.36-.3.54a.4.4,0,0,0,0,.19.08.08,0,0,0,0,.07s0,0,.07,0l.2-.33c.15-.22.28-.45.44-.66a1.87,1.87,0,0,1,.32-.31.66.66,0,0,0,.28-.36.76.76,0,0,0,0-.21.26.26,0,0,1,.15-.22,3.86,3.86,0,0,0,.86-.59,1,1,0,0,0,.27-.35S41.72,23.11,41.72,23.08Z" transform="translate(-8.61 -8.16)"/></svg>