<svg id="图层_1" data-name="图层 1" xmlns="http://www.w3.org/2000/svg" viewBox="0 0 387.88257 75.88681"><defs><style>.cls-1{fill:#1c2633;}.cls-2{fill:#8dbdff;}.cls-3{fill:#0074d9;}</style></defs><title>nav_logo</title><path class="cls-1" d="M403.062,51.148v2.75H390.133V23.172h12.929v2.754h-9.941V37.031h9.277v2.75h-9.277V51.148ZM379.09,54.184q-4.04252,0-5.85205-1.282a5.08818,5.08818,0,0,1-1.914-4.234c-.06994-1.086-.097-2.078-.078-2.969.024-.887.07-1.883.145-2.988h2.902q-.12909,1.6575-.121,3.293c.008,1.09.051,2.144.121,3.164a2.1882,2.1882,0,0,0,1.187,1.836,7.78717,7.78717,0,0,0,3.547.59,7.33225,7.33225,0,0,0,3.453-.59,2.24,2.24,0,0,0,1.149-1.836q.10491-1.53.101-2.66c-.011-.75-.042-1.688-.101-2.809a4.47659,4.47659,0,0,0-.695-2.238,3.76616,3.76616,0,0,0-2.723-1.18l-3.078-.562a9.86549,9.86549,0,0,1-3.649-1.192,3.983,3.983,0,0,1-1.652-2.023,10.37778,10.37778,0,0,1-.527-3.027c-.043-.786-.059-1.629-.043-2.528.011-.898.043-1.765.086-2.609a4.9059,4.9059,0,0,1,1.789-4.192q1.758-1.254,5.89-1.257,3.8085,0,5.539,1.273a5.08724,5.08724,0,0,1,1.844,4.195c.043.676.059,1.512.043,2.508-.015.996-.043,2.028-.086,3.086h-2.926q.147-1.5285.145-3.055,0-1.5285-.102-3.035a2.11345,2.11345,0,0,0-1.132-1.808,7.295,7.295,0,0,0-3.391-.582,7.52237,7.52237,0,0,0-3.473.582,2.16566,2.16566,0,0,0-1.152,1.808c-.07.918-.106,1.852-.098,2.797s.043,1.887.098,2.817a4.65549,4.65549,0,0,0,.672,2.406c.398.547,1.332.91,2.812,1.082l3.012.469a9.1963,9.1963,0,0,1,3.664,1.187,4.09362,4.09362,0,0,1,1.66,2.078,10.16882,10.16882,0,0,1,.508,3c.07,1.063.102,1.926.086,2.586s-.059,1.453-.129,2.383a5.23653,5.23653,0,0,1-1.902,4.234q-1.75194,1.278-5.629,1.282m-19-28.258-1.488,10.008-.969,6.687h6.59l-.926-6.711-1.508-9.984Zm-2.731,19.457-1.336,8.515h-3.054l4.859-30.726h6.156l4.907,30.726h-3.055l-1.34-8.515Zm-15.062-5.602h-3.938V51.148h4.297a7.57078,7.57078,0,0,0,3.598-.656,2.29314,2.29314,0,0,0,1.223-2.019,34.57559,34.57559,0,0,0,0-5.461,2.80323,2.80323,0,0,0-1.278-2.5,7.91366,7.91366,0,0,0-3.902-.731m.297-13.855h-4.235V37.031h4.192a6.77034,6.77034,0,0,0,3.63995-.754,2.85226,2.85226,0,0,0,1.25-2.324,28.01708,28.01708,0,0,0,0-5.555,2.22,2.22,0,0,0-1.25-1.871,8.08567,8.08567,0,0,0-3.597-.601m.062,27.972h-7.289V23.172h7.227q4.0665,0,5.894,1.246a4.8624,4.8624,0,0,1,1.942,4.129q.123,3.2115,0,5.492-.153,3.1875-3.703,4.023v.731a5.21125,5.21125,0,0,1,2.793,1.41,4.07871,4.07871,0,0,1,.953,2.68c.07,1.008.10095,1.941.10095,2.808,0,.868-.03094,1.809-.10095,2.829a4.86572,4.86572,0,0,1-1.95,4.125q-1.839,1.2525-5.867,1.253M327.32,25.926V53.898h-2.992V25.926h-5.883V23.172h14.77v2.754ZM303.73,42.371l.172,11.527h-2.925V23.172h5.484l2.391,9.746,3.98,18.23h1.207l-.496-16.746-.145-11.23h2.946V53.898h-5.641l-2.711-10.863L304.57,25.906h-1.289Zm-14.457,9.223a8.98367,8.98367,0,0,0,3.743-.547,1.995,1.995,0,0,0,1.14-1.793q.29846-5.379.246-10.809-.04651-5.4135-.246-10.625a1.98327,1.98327,0,0,0-1.16-1.808,13.24468,13.24468,0,0,0-7.48,0,1.97348,1.97348,0,0,0-1.149,1.808q-.3045,5.2095-.273,10.625.03451,5.4255.273,10.809a1.98093,1.98093,0,0,0,1.149,1.793,9.06056,9.06056,0,0,0,3.757.547m0,2.59q-4.218,0-6.003-1.274a4.99754,4.99754,0,0,1-1.899-4.176q-.21148-5.232-.211-10.207,0-4.986.211-10.211a4.96667,4.96667,0,0,1,1.899-4.168q1.78647-1.254,6.003-1.257,4.18946,0,6.028,1.257a4.74021,4.74021,0,0,1,1.847,4.168q.129,5.244.129,10.219,0,4.9695-.129,10.199a4.76859,4.76859,0,0,1-1.847,4.176q-1.84059,1.272-6.028,1.274M276.508,23.172V53.898h-2.992V23.172ZM260.824,39.781H256.887V51.148h4.304a7.55046,7.55046,0,0,0,3.59-.656,2.31414,2.31414,0,0,0,1.231-2.019,34.5732,34.5732,0,0,0,0-5.461,2.83174,2.83174,0,0,0-1.282-2.5,7.93148,7.93148,0,0,0-3.906-.731m.301-13.855h-4.238V37.031h4.195a6.73608,6.73608,0,0,0,3.63306-.754,2.8423,2.8423,0,0,0,1.25-2.324,27.00116,27.00116,0,0,0,0-5.555,2.21236,2.21236,0,0,0-1.25-1.871,8.05148,8.05148,0,0,0-3.59-.601m.066,27.972h-7.296V23.172h7.23c2.711,0,4.68.414,5.895,1.246a4.86954,4.86954,0,0,1,1.937,4.129q.12909,3.2115,0,5.492-.153,3.1875-3.699,4.023v.731a5.20993,5.20993,0,0,1,2.797,1.41,4.112,4.112,0,0,1,.945,2.68c.074,1.008.109,1.941.109,2.808,0,.868-.035,1.809-.109,2.829a4.87533,4.87533,0,0,1-1.949,4.125q-1.83455,1.2525-5.86005,1.253m-26.363-9.035v9.035h-3.012V23.172h5.403l2.047,12.39,1.242,15.477h.816L242.551,35.562l2.066-12.39H250V53.898h-3.012V44.863l.512-18.937h-.926l-2.152,19.109-1.567,8.758h-3.894l-1.555-8.758-2.168-19.109h-.91Zm-12.023,1.098v7.937h-3.032v-7.98l-6.289-22.746h3.121l2.372,8.476,1.871,9.688h.968l1.762-9.688,2.371-8.476h3.164Zm-19.18,8.223q-4.04845,0-5.852-1.282a5.069,5.069,0,0,1-1.914-4.234c-.074-1.086-.101-2.078-.082-2.969.024-.887.075-1.883.145-2.988h2.906q-.129,1.6575-.117,3.293.006,1.635.117,3.164a2.17519,2.17519,0,0,0,1.184,1.836,7.81551,7.81551,0,0,0,3.547.59,7.32434,7.32434,0,0,0,3.453-.59,2.25816,2.25816,0,0,0,1.156-1.836q.099-1.53.094-2.66c-.008-.75-.039-1.688-.094-2.809a4.43887,4.43887,0,0,0-.699-2.238,3.77479,3.77479,0,0,0-2.727-1.18l-3.074-.562a9.82644,9.82644,0,0,1-3.648-1.192,3.968,3.968,0,0,1-1.657-2.023,10.68762,10.68762,0,0,1-.527-3.027c-.043-.786-.059-1.629-.043-2.528.016-.898.043-1.765.086-2.609a4.891,4.891,0,0,1,1.801-4.192q1.746-1.254,5.879-1.257,3.8085,0,5.543,1.273a5.08773,5.08773,0,0,1,1.839,4.195c.043.676.059,1.512.043,2.508-.011.996-.043,2.028-.086,3.086h-2.925q.15143-1.5285.152-3.055,0-1.5285-.109-3.035a2.10058,2.10058,0,0,0-1.133-1.808,7.28945,7.28945,0,0,0-3.391-.582,7.5481,7.5481,0,0,0-3.472.582,2.15227,2.15227,0,0,0-1.149,1.808c-.074.918-.105,1.852-.101,2.797.007.945.042,1.887.101,2.817a4.5775,4.5775,0,0,0,.68006,2.406c.394.547,1.328.91,2.801,1.082l3.015.469a9.17473,9.17473,0,0,1,3.66,1.187,4.11,4.11,0,0,1,1.668,2.078,10.16882,10.16882,0,0,1,.508,3q.10053,1.5945.078,2.586c-.011.66-.054,1.453-.121,2.383a5.25937,5.25937,0,0,1-1.90594,4.234q-1.75809,1.278-5.629,1.282M188.199,25.926V53.898h-2.992V25.926h-5.879V23.172h14.766v2.754Zm-18.394,28.25q-3.9375,0-5.637-1.274a5.15348,5.15348,0,0,1-1.813-4.195q-.37949-10.1835,0-20.352a5.21389,5.21389,0,0,1,1.829-4.062q1.728-1.389,5.578-1.387,3.978,0,5.8,1.27a4.9467,4.9467,0,0,1,1.903,4.199c.027.473.043,1.055.043,1.75s-.012,1.395-.031,2.086c-.024.699-.043,1.293-.055,1.777H174.43c.027-.933.047-1.953.058-3.054.004-1.106-.015-2.122-.058-3.059a1.9809,1.9809,0,0,0-1.063-1.848,8.23138,8.23138,0,0,0-3.605-.562,7.23424,7.23424,0,0,0-3.344.562,2.07223,2.07223,0,0,0-1.07,1.848q-.34057,10.653,0,21.328a2.08,2.08,0,0,0,1.07,1.836,7.29285,7.29285,0,0,0,3.387.57,8.86894,8.86894,0,0,0,3.777-.57,2.05113,2.05113,0,0,0,1.148-1.836c.047-1.004.047-2.086.008-3.242q-.04651-1.728-.113-3.238h3.055c.074,1.007.117,2.004.129,2.984.01495.984-.012,1.981-.086,3a5.01559,5.01559,0,0,1-1.973,4.195q-1.83453,1.272-5.945,1.274m-10.188-3.028v2.75H146.688V23.172h12.929v2.754h-9.941V37.031h9.277v2.75h-9.277V51.148Zm-23.969,3.036q-4.04856,0-5.855-1.282a5.088,5.088,0,0,1-1.914-4.234c-.07-1.086-.098-2.078-.078-2.969q.03441-1.3305.144-2.988h2.903q-.129,1.6575-.121,3.293c.007,1.09.05,2.144.121,3.164a2.18613,2.18613,0,0,0,1.18695,1.836,7.81026,7.81026,0,0,0,3.547.59,7.33512,7.33512,0,0,0,3.453-.59,2.24,2.24,0,0,0,1.14905-1.836c.074-1.02.105-1.906.10095-2.66-.012-.75-.043-1.688-.10095-2.809a4.39884,4.39884,0,0,0-.696-2.238,3.76123,3.76123,0,0,0-2.722-1.18l-3.078-.562a9.85872,9.85872,0,0,1-3.649-1.192,3.97734,3.97734,0,0,1-1.652-2.023,10.68291,10.68291,0,0,1-.528-3.027q-.06454-1.179-.043-2.528c.012-.898.043-1.765.086-2.609a4.90862,4.90862,0,0,1,1.789-4.192q1.758-1.254,5.891-1.257,3.8085,0,5.539,1.273a5.09039,5.09039,0,0,1,1.84406,4.195q.06446,1.014.043,2.508c-.016.996-.043,2.028-.086,3.086h-2.926q.147-1.5285.145-3.055c0-1.019-.036-2.031-.102-3.035a2.11452,2.11452,0,0,0-1.133-1.808,7.2877,7.2877,0,0,0-3.39-.582,7.53875,7.53875,0,0,0-3.473.582,2.1534,2.1534,0,0,0-1.148,1.808c-.075.918-.11005,1.852-.102,2.797s.043,1.887.102,2.817a4.54274,4.54274,0,0,0,.675,2.406c.391.547,1.325.91,2.805,1.082l3.012.469a9.2026,9.2026,0,0,1,3.664,1.187,4.09884,4.09884,0,0,1,1.66,2.078,10.16621,10.16621,0,0,1,.508,3c.07,1.063.101,1.926.086,2.586q-.024.99-.129,2.383a5.23731,5.23731,0,0,1-1.903,4.234q-1.752,1.278-5.625,1.282m-23.91-11.813.176,11.527h-2.926V23.172h5.485l2.39,9.746,3.981,18.23h1.207l-.5-16.746-.153-11.23h2.95V53.898h-5.637l-2.707-10.863-3.426-17.129h-1.293Zm-7.621-19.199V53.898h-2.992V23.172Z" transform="translate(-15.17944 -1.57764)"/><path class="cls-2" d="M275.988,74.938h-.738V70.973h1.215v-.266H275.25v-.059c0-1.21.18-1.894.543-2.058a.60347.60347,0,0,1,.254-.051.64.64,0,0,1,.547.391,1.70064,1.70064,0,0,0,.273.402.3141.3141,0,0,0,.188.066.365.365,0,0,0,.414-.296.56824.56824,0,0,0,.015-.094c0-.266-.175-.469-.527-.613a1.94516,1.94516,0,0,0-.695-.118,1.61048,1.61048,0,0,0-1.481.825,2.84073,2.84073,0,0,0-.324,1.437v.168h-.746v.266h.746v3.332c0,.324-.094.519-.277.582a1.83365,1.83365,0,0,1-.52.051v.269H276.254c0-.156-.051-.238-.16-.254a.37951.37951,0,0,0-.106-.015m-3.64-5.778a.55078.55078,0,0,0-.328-.535.65043.65043,0,0,0-.247-.051.54952.54952,0,0,0-.527.34.66505.66505,0,0,0-.051.246.53517.53517,0,0,0,.348.535.68515.68515,0,0,0,.23.043.524.524,0,0,0,.524-.34.6398.6398,0,0,0,.051-.238m.402,5.77h-.527V70.699H270.582v.266h.848v3.332c0,.328-.11.527-.328.598a2.724,2.724,0,0,1-.52.035v.269h2.438c0-.156-.055-.238-.161-.254a.63257.63257,0,0,0-.109-.015m-6.965-1.992a2.039,2.039,0,0,1,.809-1.946,1.17842,1.17842,0,0,1,.558-.137,1.14515,1.14515,0,0,1,1.106.833,2.90906,2.90906,0,0,1,.172,1.046,2.40359,2.40359,0,0,1-.629,1.844,1.13,1.13,0,0,1-.77405.305c-.578,0-.953-.352-1.132-1.055a3.27628,3.27628,0,0,1-.11005-.89m2.629,1.14.082,1.121H270.012c0-.156-.051-.238-.16-.254a.42078.42078,0,0,0-.106-.015h-.527l-.024-6.61h-1.797v.262h1.004v2.586a1.78594,1.78594,0,0,0-1.394-.57,1.90627,1.90627,0,0,0-1.758,1.031,2.881,2.881,0,0,0-.359,1.43,2.21117,2.21117,0,0,0,.824,1.918,1.73345,1.73345,0,0,0,1.02295.332,1.78324,1.78324,0,0,0,1.676-1.231m-9.074.805a.74066.74066,0,0,1-.793-.645,1.43407,1.43407,0,0,1-.035-.332c0-.472.269-.769.816-.894a6.42667,6.42667,0,0,1,1.262-.11v.844a1.39784,1.39784,0,0,1-.774,1.027,1.17687,1.17687,0,0,1-.476.11m2.105.426q.81445,0,.903-.993a1.079,1.079,0,0,0,.007-.113l-.277-.008c-.047.516-.183.774-.41.782-.184-.016-.281-.2-.289-.551V72.195a1.42411,1.42411,0,0,0-1.512-1.597h-.187a1.88625,1.88625,0,0,0-1.59.547.62389.62389,0,0,0-.129.363.34063.34063,0,0,0,.312.375.42573.42573,0,0,0,.102.015c.16,0,.281-.105.359-.312a3.0275,3.0275,0,0,1,.204-.461.71869.71869,0,0,1,.621-.27,1.00218,1.00218,0,0,1,1.031,1.094v.672q-2.49006,0-2.84406,1.031a1.444,1.444,0,0,0-.066.434,1.09168,1.09168,0,0,0,.707,1.105,1.5371,1.5371,0,0,0,.601.118,1.78757,1.78757,0,0,0,1.309-.536,1.37945,1.37945,0,0,0,.281-.418q.129.9375.867.954m-6.64-1.129-.27-.094a1.43407,1.43407,0,0,1-1.191.91,1.18236,1.18236,0,0,1-.199.016q-1.11456,0-1.403-1.324a4.41678,4.41678,0,0,1-.094-.817l1.27.024a3.16417,3.16417,0,0,0,1.66394-.247.7077.7077,0,0,0,.289-.605,1.28984,1.28984,0,0,0-.738-1.145,2.32938,2.32938,0,0,0-1.192-.3,1.96914,1.96914,0,0,0-1.894,1.097,2.796,2.796,0,0,0-.297,1.293,2.17684,2.17684,0,0,0,.941,1.942,2.22419,2.22419,0,0,0,1.278.379,1.85564,1.85564,0,0,0,1.683-.832,2.38136,2.38136,0,0,0,.153-.297m-1.844-3.325a.95809.95809,0,0,1,.984.629,1.0844,1.0844,0,0,1,.086.434.59554.59554,0,0,1-.504.644,3.32311,3.32311,0,0,1-.754.043l-1.125-.027a1.69748,1.69748,0,0,1,.793-1.59,1.05939,1.05939,0,0,1,.52-.133M247.43,74.93h-.481V73.371l.578-.543,1.496,2.371h1.411c0-.156-.055-.238-.161-.254a.40552.40552,0,0,0-.105-.015h-.387l-1.695-2.621.988-.93a1.52763,1.52763,0,0,1,.56305-.391.75727.75727,0,0,1,.191-.023c.156,0,.242-.051.25-.16a.29809.29809,0,0,0,.016-.106h-1.801v.266h.797l-2.14106,1.98V68.32h-1.586v.262h.793v5.715c0,.328-.09.523-.273.586a2.05608,2.05608,0,0,1-.52.047v.269h2.325c0-.156-.051-.238-.161-.254a.31683.31683,0,0,0-.097-.015m-5.465-.047a.74751.74751,0,0,1-.793-.645,1.70191,1.70191,0,0,1-.031-.332c0-.472.269-.769.812-.894a6.39462,6.39462,0,0,1,1.262-.11v.844a1.39784,1.39784,0,0,1-.77405,1.027,1.19192,1.19192,0,0,1-.47595.11m2.10095.426c.547,0,.848-.332.907-.993a1.079,1.079,0,0,0,.007-.113l-.277-.008c-.047.516-.183.774-.41.782-.184-.016-.277-.2-.281-.551V72.195a1.428,1.428,0,0,0-1.52-1.597h-.187a1.88625,1.88625,0,0,0-1.59.547.62389.62389,0,0,0-.129.363.34063.34063,0,0,0,.312.375.43015.43015,0,0,0,.106.015c.16,0,.277-.105.355-.312a3.18391,3.18391,0,0,1,.203-.461.73178.73178,0,0,1,.629-.27.99853.99853,0,0,1,1.02405,1.094v.672q-2.484,0-2.84406,1.031a1.32737,1.32737,0,0,0-.066.434,1.09168,1.09168,0,0,0,.707,1.105,1.57159,1.57159,0,0,0,.605.118,1.77126,1.77126,0,0,0,1.301-.536,1.3946,1.3946,0,0,0,.285-.418c.086.625.375.942.863.954m-10.386-.371h-.477V72.656a1.6876,1.6876,0,0,1,.641-1.386.97279.97279,0,0,1,.574-.211.73969.73969,0,0,1,.734.578,1.83318,1.83318,0,0,1,.082.57v2.098c0,.324-.078.519-.234.582a1.65279,1.65279,0,0,1-.504.051v.269h2.274c0-.156-.051-.238-.157-.254a.42142.42142,0,0,0-.10895-.015h-.477V72.23a1.52524,1.52524,0,0,1,.75-1.078,1.03338,1.03338,0,0,1,.426-.109.78687.78687,0,0,1,.762.566,1.60715,1.60715,0,0,1,.105.598v2.098c0,.324-.074.519-.23.582a1.75118,1.75118,0,0,1-.512.051v.269h2.34c0-.156-.051-.238-.16-.254a.37965.37965,0,0,0-.106-.015h-.535V72.316a1.64583,1.64583,0,0,0-.707-1.523,1.35519,1.35519,0,0,0-.69494-.188,1.466,1.466,0,0,0-1.285.75,2.2085,2.2085,0,0,0-.219.399,1.37537,1.37537,0,0,0-.828-1.078,1.19153,1.19153,0,0,0-.399-.071,1.52091,1.52091,0,0,0-1.257.641,1.79266,1.79266,0,0,0-.282.52l-.043-1.059h-1.539v.266h.793v3.332c0,.324-.09.519-.273.582a1.8337,1.8337,0,0,1-.52.051v.269h2.332c0-.148-.05-.234-.156-.254a.58947.58947,0,0,0-.109-.015m-5.91-.008h-.758V72.828a2.07857,2.07857,0,0,1,.59-1.547.71466.71466,0,0,1,.39-.23c.121,0,.231.086.328.261.114.196.219.309.317.34a.481.481,0,0,0,.129.02.3757.3757,0,0,0,.398-.301.38425.38425,0,0,0,.02-.133.54287.54287,0,0,0-.481-.578,1.27819,1.27819,0,0,0-.203-.019,1.50545,1.50545,0,0,0-1.137.535,2.17,2.17,0,0,0-.367.57l-.043-1.047h-1.531v.266h.793v3.332c0,.328-.09.523-.27405.586a2.04659,2.04659,0,0,1-.519.047v.269h2.613c0-.156-.051-.238-.15594-.254a.4781.4781,0,0,0-.109-.015m-3.129-.75-.266-.094a1.44627,1.44627,0,0,1-1.195.91,1.18535,1.18535,0,0,1-.2.016q-1.113,0-1.394-1.324a4.00748,4.00748,0,0,1-.102-.817l1.27.024a3.1646,3.1646,0,0,0,1.664-.247.70781.70781,0,0,0,.28894-.605,1.296,1.296,0,0,0-.73-1.145,2.37236,2.37236,0,0,0-1.2-.3,1.96914,1.96914,0,0,0-1.894,1.097,2.79426,2.79426,0,0,0-.293,1.293,2.18281,2.18281,0,0,0,.93695,1.942,2.23961,2.23961,0,0,0,1.285.379,1.847,1.847,0,0,0,1.676-.832,2.38136,2.38136,0,0,0,.153-.297m-1.844-3.325a.95177.95177,0,0,1,.984.629,1.08439,1.08439,0,0,1,.086.434.59554.59554,0,0,1-.504.644,3.32311,3.32311,0,0,1-.754.043l-1.125-.027a1.70328,1.70328,0,0,1,.793-1.59,1.07052,1.07052,0,0,1,.52-.133m-6.219,4.075h-.535V72.648a1.53354,1.53354,0,0,1,.672-1.394,1.02215,1.02215,0,0,1,.56994-.18.907.907,0,0,1,.89905.598,1.62168,1.62168,0,0,1,.121.637v1.988c0,.328-.078.523-.239.586a1.86577,1.86577,0,0,1-.504.047v.269h2.325c0-.156-.051-.238-.16-.254a.41139.41139,0,0,0-.098-.015h-.535V72.309a1.61656,1.61656,0,0,0-.762-1.567,1.40008,1.40008,0,0,0-.633-.144,1.7236,1.7236,0,0,0-1.316.57,1.93311,1.93311,0,0,0-.34.547V68.32h-1.582v.262h.797v5.715c0,.328-.094.523-.278.586a2.025,2.025,0,0,1-.519.047v.269h2.379c0-.156-.05506-.238-.16-.254a.36138.36138,0,0,0-.102-.015m-5.687-4.231v.266h.746v2.984c.047.883.453,1.336,1.215,1.367q.972,0,1.218-1.195v-.019l-.289-.059c-.176.586-.433.906-.773.953-.379-.016-.57-.285-.578-.816V70.965h1.64v-.266h-1.64V69.477l-.793.218v1.004Zm-.641,3.481-.27-.094a1.43933,1.43933,0,0,1-1.191.91,1.22027,1.22027,0,0,1-.203.016c-.738,0-1.207-.442-1.398-1.324a4.33454,4.33454,0,0,1-.094-.817l1.269.024a3.13538,3.13538,0,0,0,1.66-.247.69569.69569,0,0,0,.289-.605,1.2856,1.2856,0,0,0-.734-1.145,2.32814,2.32814,0,0,0-1.191-.3,1.96587,1.96587,0,0,0-1.895,1.097,2.79608,2.79608,0,0,0-.297,1.293,2.17746,2.17746,0,0,0,.942,1.942,2.22313,2.22313,0,0,0,1.277.379,1.85748,1.85748,0,0,0,1.684-.832,2.52921,2.52921,0,0,0,.152-.297m-1.844-3.325a.95932.95932,0,0,1,.985.629,1.10251,1.10251,0,0,1,.086.434.59546.59546,0,0,1-.508.644,3.27659,3.27659,0,0,1-.75.043l-1.125-.027a1.68824,1.68824,0,0,1,.793-1.59,1.05839,1.05839,0,0,1,.519-.133m-5.281,6.079c-.699,0-1.137-.184-1.32-.551a.61847.61847,0,0,1-.075-.297.90182.90182,0,0,1,.254-.57,1.6246,1.6246,0,0,0,.348.043l1.63306.023c.527.004.836.125.918.359a.6605.6605,0,0,1,.027.211q0,.4635-.86694.68a3.97616,3.97616,0,0,1-.918.102m0-6.336a1.9503,1.9503,0,0,0-1.516.613,1.57776,1.57776,0,0,0-.398,1.07,1.56152,1.56152,0,0,0,.781,1.328.60675.60675,0,0,0,.153.094.78271.78271,0,0,0-.848.586,1.07117,1.07117,0,0,0-.035.273.94515.94515,0,0,0,.457.84,1.08631,1.08631,0,0,0-.348.75.93343.93343,0,0,0,.684.868,2.70555,2.70555,0,0,0,1.07.187,2.38285,2.38285,0,0,0,2.125-.781.99591.99591,0,0,0,.172-.563c0-.605-.348-.957-1.047-1.047a1.76351,1.76351,0,0,0-.289-.023l-1.922-.043c-.328-.02-.492-.156-.496-.418,0-.184.113-.297.344-.348a1.10141,1.10141,0,0,1,.16-.015l.933.015a1.90018,1.90018,0,0,0,1.5-.636,1.57058,1.57058,0,0,0,.407-1.082,1.59544,1.59544,0,0,0-.614-1.274.50526.50526,0,0,1,.36-.394.177.177,0,0,1,.082-.016.48167.48167,0,0,1,.316.16.33045.33045,0,0,0,.211.106.38328.38328,0,0,0,.309-.336.43181.43181,0,0,0-.309-.442.62437.62437,0,0,0-.234-.043.93049.93049,0,0,0-.801.438,1.55341,1.55341,0,0,0-.18.371,2.2563,2.2563,0,0,0-1.027-.238m-1.07,1.668q.02253-1.395,1.054-1.411c.696.016,1.043.485,1.051,1.411-.012.957-.35894,1.441-1.051,1.453q-1.04252-.024-1.054-1.453m-4.067-1.668a2.278,2.278,0,0,0-1.691.691,2.48533,2.48533,0,0,0,.348,3.613,2.27611,2.27611,0,0,0,1.316.407,2.19885,2.19885,0,0,0,1.684-.723,2.31028,2.31028,0,0,0,.613-1.641,2.20128,2.20128,0,0,0-.985-1.98,2.35378,2.35378,0,0,0-1.285-.367m-1.414,2.347q0-1.6395.903-2a1.3591,1.3591,0,0,1,.484-.09c.785,0,1.238.497,1.363,1.481a4.9875,4.9875,0,0,1,.031.566q0,1.776-.968,2.086a1.51635,1.51635,0,0,1-.399.051q-1.06045,0-1.343-1.269a4.41133,4.41133,0,0,1-.071-.825m-4.554-2.246v.266h.746v2.984c.046.883.453,1.336,1.214,1.367q.97357,0,1.219-1.195v-.019l-.289-.059c-.172.586-.43.906-.77295.953-.379-.016-.571-.285-.578-.816V70.965H195.199v-.266H193.559V69.477l-.793.218v1.004Zm-7.555,0v.266h.73394v2.984c.05506.883.461,1.336,1.223,1.367.652,0,1.055-.398,1.215-1.195v-.019l-.282-.059c-.179.586-.437.906-.773.953-.383-.016-.57794-.285-.586-.816V70.965H187.637v-.266H185.996V69.477l-.797.218v1.004ZM180.613,74.938h-.476V72.656a1.64512,1.64512,0,0,1,.699-1.418,1.1375,1.1375,0,0,1,.586-.179.86013.86013,0,0,1,.875.601,1.52686,1.52686,0,0,1,.094.547v2.098c0,.324-.09.519-.274.582a1.83926,1.83926,0,0,1-.519.051v.269h2.382c0-.156-.054-.238-.16-.254a.3747.3747,0,0,0-.109-.015h-.527V72.316a1.64688,1.64688,0,0,0-.727-1.511,1.42744,1.42744,0,0,0-.73-.2,1.60139,1.60139,0,0,0-1.293.622,2.26469,2.26469,0,0,0-.305.539l-.043-1.059h-1.531v.266h.785v3.332c0,.324-.09.519-.27405.582a1.79325,1.79325,0,0,1-.511.051v.269h2.324c0-.156-.051-.238-.156-.254a.43672.43672,0,0,0-.11-.015m-5.066-4.34a2.28072,2.28072,0,0,0-1.695.691,2.48045,2.48045,0,0,0,.351,3.613,2.28182,2.28182,0,0,0,1.309.407,2.19065,2.19065,0,0,0,1.683-.723,2.31106,2.31106,0,0,0,.614-1.641,2.20047,2.20047,0,0,0-.981-1.98,2.35,2.35,0,0,0-1.281-.367m-1.422,2.347q0-1.6395.902-2a1.38527,1.38527,0,0,1,.485-.09c.785,0,1.242.497,1.367,1.481a4.36217,4.36217,0,0,1,.035.566q0,1.776-.976,2.086a1.47781,1.47781,0,0,1-.391.051q-1.0665,0-1.344-1.269a4.07044,4.07044,0,0,1-.078-.825m-2.297-3.785a.552.552,0,0,0-.324-.535.64944.64944,0,0,0-.246-.051.59693.59693,0,0,0-.586.586.53213.53213,0,0,0,.355.535.66082.66082,0,0,0,.231.043.52683.52683,0,0,0,.519-.34.56932.56932,0,0,0,.051-.238m.406,5.77h-.535V70.699H170.059v.266h.843v3.332c0,.328-.109.527-.324.598a2.7328,2.7328,0,0,1-.519.035v.269h2.433c0-.156-.051-.238-.16-.254a.46393.46393,0,0,0-.098-.015m-5.058-3.914c.578,0,.957.355,1.133,1.062a3.41326,3.41326,0,0,1,.10095.887c0,.992-.26495,1.64-.801,1.937a1.12759,1.12759,0,0,1-.562.137,1.14394,1.14394,0,0,1-1.121-.844,3.06247,3.06247,0,0,1-.16-1.027,2.3791,2.3791,0,0,1,.636-1.856,1.13943,1.13943,0,0,1,.774-.296m-.024,4.293a2.04088,2.04088,0,0,0,1.571-.704,2.85853,2.85853,0,0,0-.043-3.531,1.59839,1.59839,0,0,0-1.18-.476,1.68884,1.68884,0,0,0-1.641,1.031c-.031.07-.062.133-.086.195V68.32h-1.582v.262h.793v5.715c0,.328-.089.523-.273.586a2.03442,2.03442,0,0,1-.52.047v.269h1.329l.101-.699a1.66708,1.66708,0,0,0,1.375.793,1.14817,1.14817,0,0,0,.156.016m-9.492-.371H157.184V72.656a1.67583,1.67583,0,0,1,.644-1.386.96423.96423,0,0,1,.57-.211.74079.74079,0,0,1,.735.578,1.83318,1.83318,0,0,1,.082.57v2.098c0,.324-.078.519-.231.582a1.68915,1.68915,0,0,1-.507.051v.269h2.277c0-.156-.05506-.238-.16-.254a.41116.41116,0,0,0-.11-.015h-.476V72.23a1.51942,1.51942,0,0,1,.75-1.078,1.03137,1.03137,0,0,1,.43-.109.78022.78022,0,0,1,.757.566,1.58571,1.58571,0,0,1,.11.598v2.098c0,.324-.078.519-.235.582a1.73827,1.73827,0,0,1-.511.051v.269h2.339c0-.156-.05-.238-.156-.254a.42138.42138,0,0,0-.109-.015h-.535V72.316a1.63982,1.63982,0,0,0-.707-1.523,1.34854,1.34854,0,0,0-.696-.188,1.4706,1.4706,0,0,0-1.285.75,2.2085,2.2085,0,0,0-.219.399,1.36762,1.36762,0,0,0-.828-1.078,1.15149,1.15149,0,0,0-.39795-.071,1.52666,1.52666,0,0,0-1.25806.641,1.78991,1.78991,0,0,0-.28094.52l-.043-1.059h-1.539v.266h.797v3.332c0,.324-.094.519-.278.582a1.82043,1.82043,0,0,1-.519.051v.269h2.332c0-.148-.051-.234-.156-.254a.56748.56748,0,0,0-.11005-.015m-6.414,1.945c-.113,0-.19494-.086-.254-.254a.89716.89716,0,0,0-.222-.391.37967.37967,0,0,0-.219-.062.35324.35324,0,0,0-.399.293.53608.53608,0,0,0-.004.074.61562.61562,0,0,0,.461.586,1.33915,1.33915,0,0,0,.45.078,1.72466,1.72466,0,0,0,1.449-1.027,6.54206,6.54206,0,0,0,.484-.981l1.57-3.867c.067-.195.145-.309.231-.34a.9905.9905,0,0,1,.16394-.012c.145,0,.227-.042.246-.125a.41186.41186,0,0,0,.024-.156h-1.614v.281h.774L153.035,74.359l-1.449-3.379h.707v-.281h-2.059v.281h.512l1.906,4.219q-.591,1.395-1.113,1.617a.69716.69716,0,0,1-.293.067m-3.308-1.863a1.03357,1.03357,0,0,0,.98-.442.68522.68522,0,0,0,.094-.355c0-.293-.215-.547-.64105-.758-.094-.047-.246-.121-.457-.215a3.38366,3.38366,0,0,1-1.156-.672,1.226,1.226,0,0,1-.305-.816,1.05465,1.05465,0,0,1,.805-1.028,2.24254,2.24254,0,0,1,.801-.136,2.31855,2.31855,0,0,1,1.207.297c0-.207.05-.329.152-.356.043-.004.09-.008.137-.008v1.324h-.274c-.015-.652-.379-.98-1.086-.984-.523,0-.851.152-.98.461a.7221.7221,0,0,0-.051.27c0,.304.219.558.656.773.098.047.25.113.461.203a3.20019,3.20019,0,0,1,1.145.664,1.18451,1.18451,0,0,1-.60206,1.949,2.39081,2.39081,0,0,1-.76495.118,2.46565,2.46565,0,0,1-1.321-.383c0,.179-.047.289-.14.316-.043.004-.09.008-.145.008V73.645h.297c.016.91.41,1.367,1.188,1.375m-8.555-2.082c0-.997.265-1.645.801-1.946a1.19135,1.19135,0,0,1,.56195-.137,1.12934,1.12934,0,0,1,1.098.833,2.73575,2.73575,0,0,1,.183,1.046,2.39387,2.39387,0,0,1-.636,1.844,1.10344,1.10344,0,0,1-.766.305q-.873,0-1.137-1.055a3.49637,3.49637,0,0,1-.105-.89m2.621,1.14.086,1.121h1.519c0-.156-.054-.238-.16-.254a.43932.43932,0,0,0-.10894-.015h-.528l-.019-6.61h-1.801v.262h1.004v2.586a1.78733,1.78733,0,0,0-1.394-.57,1.91107,1.91107,0,0,0-1.762,1.031,2.91037,2.91037,0,0,0-.356,1.43,2.222,2.222,0,0,0,.825,1.918,1.7455,1.7455,0,0,0,1.027.332,1.77462,1.77462,0,0,0,1.668-1.231m-7.57.86h-.477V72.656a1.63277,1.63277,0,0,1,.691-1.418,1.14018,1.14018,0,0,1,.586-.179.87615.87615,0,0,1,.883.601,1.50577,1.50577,0,0,1,.094.547v2.098c0,.324-.094.519-.277.582a1.83365,1.83365,0,0,1-.52.051v.269h2.379c0-.156-.055-.238-.16-.254a.32845.32845,0,0,0-.102-.015h-.527V72.316a1.63918,1.63918,0,0,0-.731-1.511,1.41563,1.41563,0,0,0-.734-.2,1.58368,1.58368,0,0,0-1.285.622,2.0745,2.0745,0,0,0-.31305.539l-.043-1.059h-1.531v.266h.793v3.332c0,.324-.09.519-.27295.582a1.85262,1.85262,0,0,1-.52.051v.269h2.324c0-.156-.05-.238-.156-.254a.38239.38239,0,0,0-.10095-.015m-5.457-.055a.74746.74746,0,0,1-.793-.645,1.71186,1.71186,0,0,1-.028-.332c0-.472.27-.769.817-.894a6.36479,6.36479,0,0,1,1.254-.11v.844a1.4002,1.4002,0,0,1-.774,1.027,1.17688,1.17688,0,0,1-.476.11m2.109.426c.547,0,.844-.332.898-.993a.54316.54316,0,0,0,.012-.113l-.273-.008c-.051.516-.192.774-.418.782q-.276-.024-.282-.551V72.195a1.4273,1.4273,0,0,0-1.519-1.597H129.316a1.884,1.884,0,0,0-1.589.547.64216.64216,0,0,0-.122.363.33808.33808,0,0,0,.305.375.55042.55042,0,0,0,.106.015c.164,0,.285-.105.363-.312a2.451,2.451,0,0,1,.20294-.461.71158.71158,0,0,1,.621-.27.9948.9948,0,0,1,1.024,1.094v.672q-2.48547,0-2.844,1.031a1.4444,1.4444,0,0,0-.067.434,1.093,1.093,0,0,0,.707,1.105,1.60041,1.60041,0,0,0,.61.118,1.76018,1.76018,0,0,0,1.301-.536,1.60174,1.60174,0,0,0,.289-.418c.078.625.367.942.863.954m-9.426-4.61v.266h.73505v2.984c.05.883.457,1.336,1.222,1.367q.96753,0,1.215-1.195v-.019l-.28894-.059c-.176.586-.43005.906-.76605.953-.386-.016-.582-.285-.586-.816V70.965h1.641v-.266h-1.641V69.477l-.796.218v1.004Zm-4.387,2.297a2.141,2.141,0,0,0,.942,1.914,2.277,2.277,0,0,0,1.31994.399,1.92215,1.92215,0,0,0,1.66-.774,1.50845,1.50845,0,0,0,.203-.363l-.273-.094a1.505,1.505,0,0,1-1.293.918.822.822,0,0,1-.168.016,1.30284,1.30284,0,0,1-1.176-.754,2.74934,2.74934,0,0,1-.31995-1.356,2.03916,2.03916,0,0,1,.73-1.851,1.26391,1.26391,0,0,1,.68-.196.61719.61719,0,0,1,.688.45c.015.058.031.148.058.265.039.282.114.457.231.528a.61136.61136,0,0,0,.23.066.39382.39382,0,0,0,.457-.297.61865.61865,0,0,0,.02-.137,1.03168,1.03168,0,0,0-.68805-.894,2.3667,2.3667,0,0,0-1.06195-.238,2.0152,2.0152,0,0,0-1.97705,1.148,2.87214,2.87214,0,0,0-.262,1.25m-.867,1.184-.265-.094a1.44607,1.44607,0,0,1-1.192.91,1.24438,1.24438,0,0,1-.203.016q-1.11291,0-1.394-1.324a4.01238,4.01238,0,0,1-.102-.817l1.27.024a3.16458,3.16458,0,0,0,1.664-.247.70785.70785,0,0,0,.289-.605,1.28976,1.28976,0,0,0-.731-1.145,2.366,2.366,0,0,0-1.199-.3,1.96961,1.96961,0,0,0-1.895,1.097,2.79428,2.79428,0,0,0-.293,1.293,2.18359,2.18359,0,0,0,.93805,1.942,2.23956,2.23956,0,0,0,1.285.379,1.84816,1.84816,0,0,0,1.676-.832,2.53074,2.53074,0,0,0,.152-.297m-1.84-3.325a.948.948,0,0,1,.981.629,1.10251,1.10251,0,0,1,.086.434.59549.59549,0,0,1-.504.644,3.33287,3.33287,0,0,1-.754.043l-1.125-.027a1.70319,1.70319,0,0,1,.793-1.59,1.07312,1.07312,0,0,1,.52295-.133m-4.855,4.165a1.0334,1.0334,0,0,0,.98-.442.67489.67489,0,0,0,.094-.355c0-.293-.215-.547-.63995-.758-.094-.047-.247-.121-.457-.215a3.43292,3.43292,0,0,1-1.157-.672,1.22208,1.22208,0,0,1-.301-.816,1.0508,1.0508,0,0,1,.801-1.028,2.24221,2.24221,0,0,1,.801-.136,2.316,2.316,0,0,1,1.207.297c0-.207.051-.329.152-.356.043-.004.09-.008.137-.008v1.324h-.273c-.016-.652-.375-.98-1.086-.984-.524,0-.852.152-.981.461a.72211.72211,0,0,0-.05.27c0,.304.218.558.656.773.097.047.25.113.461.203a3.14574,3.14574,0,0,1,1.144.664,1.14514,1.14514,0,0,1,.309.801,1.13314,1.13314,0,0,1-.91,1.148,2.40223,2.40223,0,0,1-.76605.118,2.462,2.462,0,0,1-1.31995-.383c0,.179-.047.289-.137.316-.047.004-.094.008-.145.008V73.645h.293q.024,1.365,1.188,1.375m-5.645-.082H103.59V72.656a1.61993,1.61993,0,0,1,.703-1.418,1.07635,1.07635,0,0,1,.574-.179.86655.86655,0,0,1,.883.601,1.52686,1.52686,0,0,1,.094.547v2.098c0,.324-.09.519-.274.582a1.83931,1.83931,0,0,1-.519.051v.269h2.383c0-.156-.051-.238-.161-.254a.36649.36649,0,0,0-.105-.015h-.527V72.316a1.64727,1.64727,0,0,0-.731-1.511,1.41424,1.41424,0,0,0-.73-.2,1.592,1.592,0,0,0-1.293.622,2.267,2.267,0,0,0-.30505.539l-.043-1.059H102v.266h.797v3.332c0,.324-.094.519-.277.582a1.8337,1.8337,0,0,1-.52.051v.269h2.336c0-.156-.055-.238-.16-.254a.41142.41142,0,0,0-.11005-.015m-5.38995.261h2.594c0-.156-.055-.242-.172-.269a.87888.87888,0,0,0-.10205-.004H100.434V69.121h.836v-.273H98.676v.273h.847v5.805h-.847Z" transform="translate(-15.17944 -1.57764)"/><path class="cls-2" d="M308.84,74.18l-.262-.094a1.45582,1.45582,0,0,1-1.199.91,1.25424,1.25424,0,0,1-.203.016q-1.113,0-1.395-1.324a3.76476,3.76476,0,0,1-.093-.817l1.273.024a3.12979,3.12979,0,0,0,1.652-.247.69555.69555,0,0,0,.289-.605,1.28868,1.28868,0,0,0-.73-1.145,2.35809,2.35809,0,0,0-1.199-.3,1.96392,1.96392,0,0,0-1.89105,1.097,2.74764,2.74764,0,0,0-.297,1.293,2.18187,2.18187,0,0,0,.945,1.942,2.21231,2.21231,0,0,0,1.282.379,1.87233,1.87233,0,0,0,1.683-.832c.051-.098.098-.196.145-.297M306.996,70.855a.96.96,0,0,1,.988.629,1.155,1.155,0,0,1,.082.434.59546.59546,0,0,1-.507.644,3.294,3.294,0,0,1-.75.043l-1.121-.027a1.68228,1.68228,0,0,1,.796-1.59,1.01089,1.01089,0,0,1,.512-.133m-6.812,2.141a2.14616,2.14616,0,0,0,.937,1.914,2.29887,2.29887,0,0,0,1.324.399,1.91243,1.91243,0,0,0,1.66-.774,1.70452,1.70452,0,0,0,.204-.363l-.274-.094a1.50494,1.50494,0,0,1-1.293.918.76662.76662,0,0,1-.168.016,1.29955,1.29955,0,0,1-1.176-.754,2.7917,2.7917,0,0,1-.312-1.356,2.0298,2.0298,0,0,1,.73-1.851,1.23007,1.23007,0,0,1,.672-.196.62716.62716,0,0,1,.692.45c.011.058.027.148.05.265a.74029.74029,0,0,0,.23505.528.65693.65693,0,0,0,.23.066.3912.3912,0,0,0,.453-.297.4656.4656,0,0,0,.024-.137,1.03821,1.03821,0,0,0-.688-.894,2.34532,2.34532,0,0,0-1.054-.238,2.01,2.01,0,0,0-1.981,1.148,2.87306,2.87306,0,0,0-.26495,1.25m-4.055,1.942H295.652V72.656a1.62246,1.62246,0,0,1,.703-1.418,1.08262,1.08262,0,0,1,.579-.179.86141.86141,0,0,1,.878.601,1.50577,1.50577,0,0,1,.094.547v2.098c0,.324-.09.519-.273.582a1.84779,1.84779,0,0,1-.52.051v.269h2.383c0-.156-.051-.238-.16-.254a.37373.37373,0,0,0-.106-.015h-.527V72.316a1.64887,1.64887,0,0,0-.73-1.511,1.41808,1.41808,0,0,0-.731-.2,1.5934,1.5934,0,0,0-1.293.622,2.2633,2.2633,0,0,0-.30395.539l-.043-1.059h-1.54v.266h.797v3.332c0,.324-.093.519-.277.582a1.82376,1.82376,0,0,1-.52.051v.269h2.336c0-.156-.054-.238-.16-.254a.39683.39683,0,0,0-.10895-.015m-2.817-.758-.261-.094a1.45721,1.45721,0,0,1-1.199.91,1.12421,1.12421,0,0,1-.2.016q-1.107,0-1.394-1.324a3.76281,3.76281,0,0,1-.094-.817l1.27.024a3.16507,3.16507,0,0,0,1.66-.247.70485.70485,0,0,0,.285-.605,1.29526,1.29526,0,0,0-.731-1.145,2.35708,2.35708,0,0,0-1.191-.3,1.976,1.976,0,0,0-1.902,1.097,2.784,2.784,0,0,0-.297,1.293,2.17366,2.17366,0,0,0,.949,1.942,2.20558,2.20558,0,0,0,1.277.379,1.751,1.751,0,0,0,1.828-1.129m-1.843-3.325a.965.965,0,0,1,.992.629,1.23573,1.23573,0,0,1,.078.434.59554.59554,0,0,1-.504.644,3.3319,3.3319,0,0,1-.754.043l-1.117-.027a1.67345,1.67345,0,0,1,.793-1.59,1.019,1.019,0,0,1,.512-.133m-4.094,4.075h-.762V72.828a2.08147,2.08147,0,0,1,.594-1.547.71323.71323,0,0,1,.39105-.23c.121,0,.23.086.324.261.117.196.223.309.32.34a.481.481,0,0,0,.129.02.3768.3768,0,0,0,.399-.301.555.555,0,0,0,.019-.133.54227.54227,0,0,0-.484-.578,1.2474,1.2474,0,0,0-.203-.019,1.50366,1.50366,0,0,0-1.133.535,2.11864,2.11864,0,0,0-.367.57l-.043-1.047h-1.532v.266h.793v3.332c0,.328-.09.523-.273.586a2.05608,2.05608,0,0,1-.52.047v.269h2.614c0-.156-.055-.238-.161-.254a.4047.4047,0,0,0-.105-.015m-3.129-.75-.269-.094a1.44213,1.44213,0,0,1-1.192.91,1.21129,1.21129,0,0,1-.203.016q-1.11291,0-1.394-1.324a4.32238,4.32238,0,0,1-.098-.817l1.269.024a3.14209,3.14209,0,0,0,1.661-.247.698.698,0,0,0,.289-.605,1.29286,1.29286,0,0,0-.727-1.145,2.37906,2.37906,0,0,0-1.199-.3,1.96591,1.96591,0,0,0-1.895,1.097,2.74752,2.74752,0,0,0-.297,1.293,2.17758,2.17758,0,0,0,.942,1.942,2.23961,2.23961,0,0,0,1.285.379,1.84811,1.84811,0,0,0,1.676-.832,2.52006,2.52006,0,0,0,.152-.297m-1.844-3.325a.95306.95306,0,0,1,.985.629,1.17881,1.17881,0,0,1,.086.434.59551.59551,0,0,1-.508.644,3.27719,3.27719,0,0,1-.75.043l-1.125-.027a1.68806,1.68806,0,0,1,.793-1.59,1.05833,1.05833,0,0,1,.519-.133M279.215,74.938h-.742V70.973h1.222v-.266h-1.222v-.059c0-1.21.179-1.894.543-2.058a.58571.58571,0,0,1,.25-.051.6393.6393,0,0,1,.55.391,1.98739,1.98739,0,0,0,.274.402.32516.32516,0,0,0,.19494.066.3716.3716,0,0,0,.414-.296.87858.87858,0,0,0,.004-.094c0-.266-.176-.469-.527-.613a1.85492,1.85492,0,0,0-.684-.118,1.59642,1.59642,0,0,0-1.48.825,2.79882,2.79882,0,0,0-.332,1.437v.168h-.739v.266h.739v3.332c0,.324-.094.519-.278.582a1.8204,1.8204,0,0,1-.519.051v.269h2.594c0-.156-.051-.238-.161-.254a.3583.3583,0,0,0-.101-.015" transform="translate(-15.17944 -1.57764)"/><path class="cls-3" d="M66.195,25.379a4.552,4.552,0,0,1-2.527-.891c-4.754-3.715-1.367-11.691,4.68-8.14,4.886,2.886,5.097,9.375-2.14905,9.031M55.664,33.234a1.38073,1.38073,0,0,1-.164-.836c.258-1.875,2.969-2.23,2.961-.019-.012,1.785-1.731,2.875-2.805.855m-.902-7.265a.95553.95553,0,0,1-.09-.453c.145-1.039,1.641-1.231,1.629-.02,0,.984-.957,1.586-1.539.473M49.348,45.59a1.18222,1.18222,0,0,1-.137-.711c.219-1.621,2.551-1.93,2.551-.027,0,1.546-1.496,2.484-2.414.734M48.309,31.969a1.34819,1.34819,0,0,1-.153-.809c.246-1.82,2.875-2.168,2.867-.019,0,1.73-1.683,2.793-2.714.828m-1.426,7.738a.92285.92285,0,0,1-.094-.5c.156-1.109,1.758-1.32,1.75-.012,0,1.059-1.019,1.703-1.656.504M42.109,48.32a1.39434,1.39434,0,0,1-.164-.847c.258-1.922,3.004-2.274,3.004-.028,0,1.821-1.765,2.93-2.84.875M34.062,64.578a3.63722,3.63722,0,0,1-.425-2.25c.683-5.078,8-6.023,7.984-.062-.012,4.832-4.691,7.781-7.559,2.312m5.79-9.605c0,1.457-1.418,2.359-2.282.703A1.10321,1.10321,0,0,1,37.43,55c.211-1.547,2.422-1.82,2.422-.027M43.73,41.848c0,1.882-1.828,3.039-2.949.91a1.45357,1.45357,0,0,1-.172-.883c.274-2.004,3.133-2.367,3.121-.027M86.926,29.938l-8.039-3.301c3.058-3.735,5.027-7.949,2.551-11.41C74.746,5.898,66.652,5.742,58.969,9.492L51.332,1.855a.81034.81034,0,1,0-1.137,1.149l7.282,7.273a50.14448,50.14448,0,0,0-9.469,7.102L39.5,11.953a.80985.80985,0,1,0-.875,1.363l8.191,5.207a91.5191,91.5191,0,0,0-6.707,7.356l-8.168-3.188a.81.81,0,0,0-.589,1.504l7.691,3.004a77.37505,77.37505,0,0,0-6.465,9.258l-.629,1.164L23.73,34.41a.81032.81032,0,0,0-.582,1.512l8.02,3.129c-1.637,3.015-3.367,6.199-4.75,9.476L18.699,46.434a.80929.80929,0,0,0-.422,1.546l7.528,2.059a31.81252,31.81252,0,0,0-2.145,8.738l-7.758.895a.80681.80681,0,0,0-.125,1.582.73433.73433,0,0,0,.309.027l7.508-.863A18.5047,18.5047,0,0,0,26.598,70.73c3.843,5.938,15.64795,9.149,21.683,4.551,1.996-1.511,3.223-4.133,4.106-7.062l6.648,1.801a.81059.81059,0,0,0,.426-1.563l-6.645-1.805c.883-3.422,1.403-7.09,2.122-9.886l6.199,2.968.136.055a.81079.81079,0,0,0,.555-1.512l-6.426-3.078A37.30049,37.30049,0,0,1,60.254,45.18l4.879,4.722a.80986.80986,0,1,0,1.121-1.164l-5.043-4.879a52.4349,52.4349,0,0,1,7.555-7.773l6.261,6.844a.91831.91831,0,0,0,.39105.238.85756.85756,0,0,0,.758-.184.82048.82048,0,0,0,.043-1.148l-6.227-6.797,1.367-1.148a62.22729,62.22729,0,0,0,6.418-5.965l8.539,3.515.09.028a.80808.80808,0,0,0,.512-1.531" transform="translate(-15.17944 -1.57764)"/><path class="cls-3" d="M34.289,62.664a1.24859,1.24859,0,0,0,.141.719c.91,1.75,2.402.805,2.41-.735,0-1.914-2.332-1.605-2.547.016M65.18,20.246a1.43634,1.43634,0,0,0,.152.836c1.066,2.02,2.79706.93,2.79706-.855.008-2.204-2.695-1.856-2.949.019" transform="translate(-15.17944 -1.57764)"/></svg>